  0
SECTION
  2
HEADER
  9
$ACADVER
  1
AC1009
  9
$EXTMIN
 10
0.0
 20
0.0
 30
0.0
  9
$EXTMAX
 10
1000.0
 20
1000.0
 30
0.0
  9
$FILLMODE
 70
 0
  9
$SPLFRAME
 70
 1
  0
ENDSEC
  0
SECTION
  2
TABLES
  0
TABLE
  2
LAYER
 70
1
  0
LAYER
  2
0
 70
     0
 62
     7
  6
CONTINUOUS
  0
ENDTAB
  0
ENDSEC
  0
SECTION
  2
ENTITIES
  0
LINE
  8
0
 62
     0
 10
5.60394
 20
5.06814
 30
0.0
 11
5.72006
 21
5.06814
 31
0.0
  0
LINE
  8
0
 62
     0
 10
5.72006
 20
5.06814
 30
0.0
 11
5.78581
 21
5.06272
 31
0.0
  0
LINE
  8
0
 62
     0
 10
5.78581
 20
5.06272
 30
0.0
 11
5.8329
 21
5.04557
 31
0.0
  0
LINE
  8
0
 62
     0
 10
5.8329
 20
5.04557
 30
0.0
 11
5.86154
 21
5.01475
 31
0.0
  0
LINE
  8
0
 62
     0
 10
5.86154
 20
5.01475
 30
0.0
 11
5.8711
 21
4.96767
 31
0.0
  0
LINE
  8
0
 62
     0
 10
5.8711
 20
4.96767
 30
0.0
 11
5.86697
 21
4.93619
 31
0.0
  0
LINE
  8
0
 62
     0
 10
5.86697
 20
4.93619
 30
0.0
 11
5.85503
 21
4.91037
 31
0.0
  0
LINE
  8
0
 62
     0
 10
5.85503
 20
4.91037
 30
0.0
 11
5.83594
 21
4.89171
 31
0.0
  0
LINE
  8
0
 62
     0
 10
5.83594
 20
4.89171
 30
0.0
 11
5.81011
 21
4.88194
 31
0.0
  0
LINE
  8
0
 62
     0
 10
5.81011
 20
4.88194
 30
0.0
 11
5.81011
 21
4.87933
 31
0.0
  0
LINE
  8
0
 62
     0
 10
5.81011
 20
4.87933
 30
0.0
 11
5.83789
 21
4.86979
 31
0.0
  0
LINE
  8
0
 62
     0
 10
5.83789
 20
4.86979
 30
0.0
 11
5.86046
 21
4.85308
 31
0.0
  0
LINE
  8
0
 62
     0
 10
5.86046
 20
4.85308
 30
0.0
 11
5.87565
 21
4.82617
 31
0.0
  0
LINE
  8
0
 62
     0
 10
5.87565
 20
4.82617
 30
0.0
 11
5.88129
 21
4.78646
 31
0.0
  0
LINE
  8
0
 62
     0
 10
5.88129
 20
4.78646
 30
0.0
 11
5.87175
 21
4.73807
 31
0.0
  0
LINE
  8
0
 62
     0
 10
5.87175
 20
4.73807
 30
0.0
 11
5.8444
 21
4.70204
 31
0.0
  0
LINE
  8
0
 62
     0
 10
5.8444
 20
4.70204
 30
0.0
 11
5.80122
 21
4.67925
 31
0.0
  0
LINE
  8
0
 62
     0
 10
5.80122
 20
4.67925
 30
0.0
 11
5.74392
 21
4.67144
 31
0.0
  0
LINE
  8
0
 62
     0
 10
5.74392
 20
4.67144
 30
0.0
 11
5.60394
 21
4.67144
 31
0.0
  0
LINE
  8
0
 62
     0
 10
5.60394
 20
4.67144
 30
0.0
 11
5.60394
 21
5.06814
 31
0.0
  0
LINE
  8
0
 62
     0
 10
5.68815
 20
4.91103
 30
0.0
 11
5.73178
 21
4.91103
 31
0.0
  0
LINE
  8
0
 62
     0
 10
5.73178
 20
4.91103
 30
0.0
 11
5.75803
 21
4.91385
 31
0.0
  0
LINE
  8
0
 62
     0
 10
5.75803
 20
4.91385
 30
0.0
 11
5.77517
 21
4.92231
 31
0.0
  0
LINE
  8
0
 62
     0
 10
5.77517
 20
4.92231
 30
0.0
 11
5.7845
 21
4.93664
 31
0.0
  0
LINE
  8
0
 62
     0
 10
5.7845
 20
4.93664
 30
0.0
 11
5.78733
 21
4.9566
 31
0.0
  0
LINE
  8
0
 62
     0
 10
5.78733
 20
4.9566
 30
0.0
 11
5.773
 21
4.98915
 31
0.0
  0
LINE
  8
0
 62
     0
 10
5.773
 20
4.98915
 30
0.0
 11
5.72786
 21
4.99914
 31
0.0
  0
LINE
  8
0
 62
     0
 10
5.72786
 20
4.99914
 30
0.0
 11
5.68815
 21
4.99914
 31
0.0
  0
LINE
  8
0
 62
     0
 10
5.68815
 20
4.99914
 30
0.0
 11
5.68815
 21
4.91103
 31
0.0
  0
LINE
  8
0
 62
     0
 10
5.68815
 20
4.84418
 30
0.0
 11
5.68815
 21
4.74089
 31
0.0
  0
LINE
  8
0
 62
     0
 10
5.68815
 20
4.74089
 30
0.0
 11
5.73742
 21
4.74089
 31
0.0
  0
LINE
  8
0
 62
     0
 10
5.73742
 20
4.74089
 30
0.0
 11
5.76519
 21
4.74457
 31
0.0
  0
LINE
  8
0
 62
     0
 10
5.76519
 20
4.74457
 30
0.0
 11
5.78342
 21
4.75543
 31
0.0
  0
LINE
  8
0
 62
     0
 10
5.78342
 20
4.75543
 30
0.0
 11
5.79318
 21
4.77257
 31
0.0
  0
LINE
  8
0
 62
     0
 10
5.79318
 20
4.77257
 30
0.0
 11
5.79622
 21
4.79492
 31
0.0
  0
LINE
  8
0
 62
     0
 10
5.79622
 20
4.79492
 30
0.0
 11
5.79318
 21
4.81511
 31
0.0
  0
LINE
  8
0
 62
     0
 10
5.79318
 20
4.81511
 30
0.0
 11
5.78321
 21
4.83072
 31
0.0
  0
LINE
  8
0
 62
     0
 10
5.78321
 20
4.83072
 30
0.0
 11
5.76432
 21
4.84071
 31
0.0
  0
LINE
  8
0
 62
     0
 10
5.76432
 20
4.84071
 30
0.0
 11
5.73525
 21
4.84418
 31
0.0
  0
LINE
  8
0
 62
     0
 10
5.73525
 20
4.84418
 30
0.0
 11
5.68815
 21
4.84418
 31
0.0
  0
LINE
  8
0
 62
     0
 10
6.07596
 20
4.92165
 30
0.0
 11
6.0395
 21
4.90603
 31
0.0
  0
LINE
  8
0
 62
     0
 10
6.0395
 20
4.90603
 30
0.0
 11
6.028
 21
4.88624
 31
0.0
  0
LINE
  8
0
 62
     0
 10
6.028
 20
4.88624
 30
0.0
 11
6.02279
 21
4.85764
 31
0.0
  0
LINE
  8
0
 62
     0
 10
6.02279
 20
4.85764
 30
0.0
 11
6.12825
 21
4.85764
 31
0.0
  0
LINE
  8
0
 62
     0
 10
6.12825
 20
4.85764
 30
0.0
 11
6.12478
 21
4.88303
 31
0.0
  0
LINE
  8
0
 62
     0
 10
6.12478
 20
4.88303
 30
0.0
 11
6.11501
 21
4.90321
 31
0.0
  0
LINE
  8
0
 62
     0
 10
6.11501
 20
4.90321
 30
0.0
 11
6.09874
 21
4.91667
 31
0.0
  0
LINE
  8
0
 62
     0
 10
6.09874
 20
4.91667
 30
0.0
 11
6.07596
 21
4.92165
 31
0.0
  0
LINE
  8
0
 62
     0
 10
6.08658
 20
4.66601
 30
0.0
 11
6.02647
 21
4.67557
 31
0.0
  0
LINE
  8
0
 62
     0
 10
6.02647
 20
4.67557
 30
0.0
 11
5.97939
 21
4.70421
 31
0.0
  0
LINE
  8
0
 62
     0
 10
5.97939
 20
4.70421
 30
0.0
 11
5.94857
 21
4.75239
 31
0.0
  0
LINE
  8
0
 62
     0
 10
5.94857
 20
4.75239
 30
0.0
 11
5.93772
 21
4.82096
 31
0.0
  0
LINE
  8
0
 62
     0
 10
5.93772
 20
4.82096
 30
0.0
 11
5.94769
 21
4.89063
 31
0.0
  0
LINE
  8
0
 62
     0
 10
5.94769
 20
4.89063
 30
0.0
 11
5.97569
 21
4.94032
 31
0.0
  0
LINE
  8
0
 62
     0
 10
5.97569
 20
4.94032
 30
0.0
 11
6.0191
 21
4.97026
 31
0.0
  0
LINE
  8
0
 62
     0
 10
6.0191
 20
4.97026
 30
0.0
 11
6.07553
 21
4.98047
 31
0.0
  0
LINE
  8
0
 62
     0
 10
6.07553
 20
4.98047
 30
0.0
 11
6.12978
 21
4.97136
 31
0.0
  0
LINE
  8
0
 62
     0
 10
6.12978
 20
4.97136
 30
0.0
 11
6.171
 21
4.94467
 31
0.0
  0
LINE
  8
0
 62
     0
 10
6.171
 20
4.94467
 30
0.0
 11
6.19706
 21
4.90126
 31
0.0
  0
LINE
  8
0
 62
     0
 10
6.19706
 20
4.90126
 30
0.0
 11
6.20617
 21
4.84267
 31
0.0
  0
LINE
  8
0
 62
     0
 10
6.20617
 20
4.84267
 30
0.0
 11
6.20617
 21
4.80251
 31
0.0
  0
LINE
  8
0
 62
     0
 10
6.20617
 20
4.80251
 30
0.0
 11
6.02126
 21
4.80251
 31
0.0
  0
LINE
  8
0
 62
     0
 10
6.02126
 20
4.80251
 30
0.0
 11
6.02669
 21
4.77106
 31
0.0
  0
LINE
  8
0
 62
     0
 10
6.02669
 20
4.77106
 30
0.0
 11
6.04081
 21
4.74739
 31
0.0
  0
LINE
  8
0
 62
     0
 10
6.04081
 20
4.74739
 30
0.0
 11
6.06272
 21
4.73264
 31
0.0
  0
LINE
  8
0
 62
     0
 10
6.06272
 20
4.73264
 30
0.0
 11
6.09224
 21
4.72765
 31
0.0
  0
LINE
  8
0
 62
     0
 10
6.09224
 20
4.72765
 30
0.0
 11
6.11849
 21
4.72917
 31
0.0
  0
LINE
  8
0
 62
     0
 10
6.11849
 20
4.72917
 30
0.0
 11
6.14236
 21
4.7335
 31
0.0
  0
LINE
  8
0
 62
     0
 10
6.14236
 20
4.7335
 30
0.0
 11
6.16536
 21
4.74089
 31
0.0
  0
LINE
  8
0
 62
     0
 10
6.16536
 20
4.74089
 30
0.0
 11
6.18881
 21
4.75151
 31
0.0
  0
LINE
  8
0
 62
     0
 10
6.18881
 20
4.75151
 30
0.0
 11
6.18881
 21
4.6875
 31
0.0
  0
LINE
  8
0
 62
     0
 10
6.18881
 20
4.6875
 30
0.0
 11
6.16689
 21
4.67774
 31
0.0
  0
LINE
  8
0
 62
     0
 10
6.16689
 20
4.67774
 30
0.0
 11
6.14367
 21
4.67122
 31
0.0
  0
LINE
  8
0
 62
     0
 10
6.14367
 20
4.67122
 30
0.0
 11
6.1174
 21
4.66732
 31
0.0
  0
LINE
  8
0
 62
     0
 10
6.1174
 20
4.66732
 30
0.0
 11
6.08658
 21
4.66601
 31
0.0
  0
LINE
  8
0
 62
     0
 10
6.43489
 20
4.98047
 30
0.0
 11
6.44206
 21
4.98025
 31
0.0
  0
LINE
  8
0
 62
     0
 10
6.44206
 20
4.98025
 30
0.0
 11
6.44965
 21
4.97982
 31
0.0
  0
LINE
  8
0
 62
     0
 10
6.44965
 20
4.97982
 30
0.0
 11
6.45638
 21
4.97894
 31
0.0
  0
LINE
  8
0
 62
     0
 10
6.45638
 20
4.97894
 30
0.0
 11
6.46115
 21
4.97808
 31
0.0
  0
LINE
  8
0
 62
     0
 10
6.46115
 20
4.97808
 30
0.0
 11
6.46115
 21
4.90039
 31
0.0
  0
LINE
  8
0
 62
     0
 10
6.46115
 20
4.90039
 30
0.0
 11
6.45508
 21
4.90147
 31
0.0
  0
LINE
  8
0
 62
     0
 10
6.45508
 20
4.90147
 30
0.0
 11
6.44706
 21
4.90235
 31
0.0
  0
LINE
  8
0
 62
     0
 10
6.44706
 20
4.90235
 30
0.0
 11
6.43881
 21
4.903
 31
0.0
  0
LINE
  8
0
 62
     0
 10
6.43881
 20
4.903
 30
0.0
 11
6.43207
 21
4.90321
 31
0.0
  0
LINE
  8
0
 62
     0
 10
6.43207
 20
4.90321
 30
0.0
 11
6.40278
 21
4.89908
 31
0.0
  0
LINE
  8
0
 62
     0
 10
6.40278
 20
4.89908
 30
0.0
 11
6.37956
 21
4.88585
 31
0.0
  0
LINE
  8
0
 62
     0
 10
6.37956
 20
4.88585
 30
0.0
 11
6.36458
 21
4.86197
 31
0.0
  0
LINE
  8
0
 62
     0
 10
6.36458
 20
4.86197
 30
0.0
 11
6.35938
 21
4.82574
 31
0.0
  0
LINE
  8
0
 62
     0
 10
6.35938
 20
4.82574
 30
0.0
 11
6.35938
 21
4.67144
 31
0.0
  0
LINE
  8
0
 62
     0
 10
6.35938
 20
4.67144
 30
0.0
 11
6.27669
 21
4.67144
 31
0.0
  0
LINE
  8
0
 62
     0
 10
6.27669
 20
4.67144
 30
0.0
 11
6.27669
 21
4.97483
 31
0.0
  0
LINE
  8
0
 62
     0
 10
6.27669
 20
4.97483
 30
0.0
 11
6.33942
 21
4.97483
 31
0.0
  0
LINE
  8
0
 62
     0
 10
6.33942
 20
4.97483
 30
0.0
 11
6.35156
 21
4.92925
 31
0.0
  0
LINE
  8
0
 62
     0
 10
6.35156
 20
4.92925
 30
0.0
 11
6.35568
 21
4.92925
 31
0.0
  0
LINE
  8
0
 62
     0
 10
6.35568
 20
4.92925
 30
0.0
 11
6.36979
 21
4.95031
 31
0.0
  0
LINE
  8
0
 62
     0
 10
6.36979
 20
4.95031
 30
0.0
 11
6.38672
 21
4.96636
 31
0.0
  0
LINE
  8
0
 62
     0
 10
6.38672
 20
4.96636
 30
0.0
 11
6.40776
 21
4.97678
 31
0.0
  0
LINE
  8
0
 62
     0
 10
6.40776
 20
4.97678
 30
0.0
 11
6.43489
 21
4.98047
 31
0.0
  0
LINE
  8
0
 62
     0
 10
6.597
 20
4.83637
 30
0.0
 11
6.62739
 21
4.8826
 31
0.0
  0
LINE
  8
0
 62
     0
 10
6.62739
 20
4.8826
 30
0.0
 11
6.70161
 21
4.97483
 31
0.0
  0
LINE
  8
0
 62
     0
 10
6.70161
 20
4.97483
 30
0.0
 11
6.79492
 21
4.97483
 31
0.0
  0
LINE
  8
0
 62
     0
 10
6.79492
 20
4.97483
 30
0.0
 11
6.68533
 21
4.8431
 31
0.0
  0
LINE
  8
0
 62
     0
 10
6.68533
 20
4.8431
 30
0.0
 11
6.80186
 21
4.67144
 31
0.0
  0
LINE
  8
0
 62
     0
 10
6.80186
 20
4.67144
 30
0.0
 11
6.70638
 21
4.67144
 31
0.0
  0
LINE
  8
0
 62
     0
 10
6.70638
 20
4.67144
 30
0.0
 11
6.6326
 21
4.78819
 31
0.0
  0
LINE
  8
0
 62
     0
 10
6.6326
 20
4.78819
 30
0.0
 11
6.60026
 21
4.76585
 31
0.0
  0
LINE
  8
0
 62
     0
 10
6.60026
 20
4.76585
 30
0.0
 11
6.60026
 21
4.67144
 31
0.0
  0
LINE
  8
0
 62
     0
 10
6.60026
 20
4.67144
 30
0.0
 11
6.51758
 21
4.67144
 31
0.0
  0
LINE
  8
0
 62
     0
 10
6.51758
 20
4.67144
 30
0.0
 11
6.51758
 21
5.09353
 31
0.0
  0
LINE
  8
0
 62
     0
 10
6.51758
 20
5.09353
 30
0.0
 11
6.60026
 21
5.09353
 31
0.0
  0
LINE
  8
0
 62
     0
 10
6.60026
 20
5.09353
 30
0.0
 11
6.60026
 21
4.90539
 31
0.0
  0
LINE
  8
0
 62
     0
 10
6.60026
 20
4.90539
 30
0.0
 11
6.59592
 21
4.83637
 31
0.0
  0
LINE
  8
0
 62
     0
 10
6.59592
 20
4.83637
 30
0.0
 11
6.597
 21
4.83637
 31
0.0
  0
LINE
  8
0
 62
     0
 10
7.04731
 20
4.7615
 30
0.0
 11
7.03863
 21
4.71961
 31
0.0
  0
LINE
  8
0
 62
     0
 10
7.03863
 20
4.71961
 30
0.0
 11
7.01389
 21
4.68989
 31
0.0
  0
LINE
  8
0
 62
     0
 10
7.01389
 20
4.68989
 30
0.0
 11
6.97526
 21
4.67188
 31
0.0
  0
LINE
  8
0
 62
     0
 10
6.97526
 20
4.67188
 30
0.0
 11
6.92426
 21
4.66601
 31
0.0
  0
LINE
  8
0
 62
     0
 10
6.92426
 20
4.66601
 30
0.0
 11
6.89649
 21
4.6671
 31
0.0
  0
LINE
  8
0
 62
     0
 10
6.89649
 20
4.6671
 30
0.0
 11
6.87239
 21
4.67014
 31
0.0
  0
LINE
  8
0
 62
     0
 10
6.87239
 20
4.67014
 30
0.0
 11
6.85047
 21
4.67557
 31
0.0
  0
LINE
  8
0
 62
     0
 10
6.85047
 20
4.67557
 30
0.0
 11
6.829
 21
4.6836
 31
0.0
  0
LINE
  8
0
 62
     0
 10
6.829
 20
4.6836
 30
0.0
 11
6.829
 21
4.75196
 31
0.0
  0
LINE
  8
0
 62
     0
 10
6.829
 20
4.75196
 30
0.0
 11
6.85308
 21
4.74175
 31
0.0
  0
LINE
  8
0
 62
     0
 10
6.85308
 20
4.74175
 30
0.0
 11
6.87804
 21
4.73372
 31
0.0
  0
LINE
  8
0
 62
     0
 10
6.87804
 20
4.73372
 30
0.0
 11
6.90235
 21
4.72831
 31
0.0
  0
LINE
  8
0
 62
     0
 10
6.90235
 20
4.72831
 30
0.0
 11
6.92426
 21
4.72656
 31
0.0
  0
LINE
  8
0
 62
     0
 10
6.92426
 20
4.72656
 30
0.0
 11
6.94314
 21
4.72851
 31
0.0
  0
LINE
  8
0
 62
     0
 10
6.94314
 20
4.72851
 30
0.0
 11
6.95617
 21
4.73415
 31
0.0
  0
LINE
  8
0
 62
     0
 10
6.95617
 20
4.73415
 30
0.0
 11
6.96332
 21
4.74283
 31
0.0
  0
LINE
  8
0
 62
     0
 10
6.96332
 20
4.74283
 30
0.0
 11
6.96571
 21
4.75369
 31
0.0
  0
LINE
  8
0
 62
     0
 10
6.96571
 20
4.75369
 30
0.0
 11
6.96397
 21
4.76367
 31
0.0
  0
LINE
  8
0
 62
     0
 10
6.96397
 20
4.76367
 30
0.0
 11
6.95594
 21
4.77322
 31
0.0
  0
LINE
  8
0
 62
     0
 10
6.95594
 20
4.77322
 30
0.0
 11
6.9375
 21
4.78472
 31
0.0
  0
LINE
  8
0
 62
     0
 10
6.9375
 20
4.78472
 30
0.0
 11
6.90517
 21
4.80035
 31
0.0
  0
LINE
  8
0
 62
     0
 10
6.90517
 20
4.80035
 30
0.0
 11
6.87088
 21
4.81793
 31
0.0
  0
LINE
  8
0
 62
     0
 10
6.87088
 20
4.81793
 30
0.0
 11
6.847
 21
4.83767
 31
0.0
  0
LINE
  8
0
 62
     0
 10
6.847
 20
4.83767
 30
0.0
 11
6.83311
 21
4.86242
 31
0.0
  0
LINE
  8
0
 62
     0
 10
6.83311
 20
4.86242
 30
0.0
 11
6.82856
 21
4.89583
 31
0.0
  0
LINE
  8
0
 62
     0
 10
6.82856
 20
4.89583
 30
0.0
 11
6.83658
 21
4.93272
 31
0.0
  0
LINE
  8
0
 62
     0
 10
6.83658
 20
4.93272
 30
0.0
 11
6.8596
 21
4.95919
 31
0.0
  0
LINE
  8
0
 62
     0
 10
6.8596
 20
4.95919
 30
0.0
 11
6.89561
 21
4.97504
 31
0.0
  0
LINE
  8
0
 62
     0
 10
6.89561
 20
4.97504
 30
0.0
 11
6.94249
 21
4.98047
 31
0.0
  0
LINE
  8
0
 62
     0
 10
6.94249
 20
4.98047
 30
0.0
 11
6.99392
 21
4.97418
 31
0.0
  0
LINE
  8
0
 62
     0
 10
6.99392
 20
4.97418
 30
0.0
 11
7.04406
 21
4.95551
 31
0.0
  0
LINE
  8
0
 62
     0
 10
7.04406
 20
4.95551
 30
0.0
 11
7.0191
 21
4.89692
 31
0.0
  0
LINE
  8
0
 62
     0
 10
7.0191
 20
4.89692
 30
0.0
 11
6.97982
 21
4.91276
 31
0.0
  0
LINE
  8
0
 62
     0
 10
6.97982
 20
4.91276
 30
0.0
 11
6.94249
 21
4.91906
 31
0.0
  0
LINE
  8
0
 62
     0
 10
6.94249
 20
4.91906
 30
0.0
 11
6.91797
 21
4.91297
 31
0.0
  0
LINE
  8
0
 62
     0
 10
6.91797
 20
4.91297
 30
0.0
 11
6.91058
 21
4.89692
 31
0.0
  0
LINE
  8
0
 62
     0
 10
6.91058
 20
4.89692
 30
0.0
 11
6.91254
 21
4.88715
 31
0.0
  0
LINE
  8
0
 62
     0
 10
6.91254
 20
4.88715
 30
0.0
 11
6.92014
 21
4.87847
 31
0.0
  0
LINE
  8
0
 62
     0
 10
6.92014
 20
4.87847
 30
0.0
 11
6.93599
 21
4.86871
 31
0.0
  0
LINE
  8
0
 62
     0
 10
6.93599
 20
4.86871
 30
0.0
 11
6.96311
 21
4.8559
 31
0.0
  0
LINE
  8
0
 62
     0
 10
6.96311
 20
4.8559
 30
0.0
 11
6.99761
 21
4.83919
 31
0.0
  0
LINE
  8
0
 62
     0
 10
6.99761
 20
4.83919
 30
0.0
 11
7.02431
 21
4.82031
 31
0.0
  0
LINE
  8
0
 62
     0
 10
7.02431
 20
4.82031
 30
0.0
 11
7.04124
 21
4.79579
 31
0.0
  0
LINE
  8
0
 62
     0
 10
7.04124
 20
4.79579
 30
0.0
 11
7.04731
 21
4.7615
 31
0.0
  0
ENDSEC
  0
EOF
