  0
SECTION
  2
HEADER
  9
$ACADVER
  1
AC1009
  9
$EXTMIN
 10
0.0
 20
0.0
 30
0.0
  9
$EXTMAX
 10
1000.0
 20
1000.0
 30
0.0
  9
$FILLMODE
 70
 0
  9
$SPLFRAME
 70
 1
  0
ENDSEC
  0
SECTION
  2
TABLES
  0
TABLE
  2
LAYER
 70
1
  0
LAYER
  2
0
 70
     0
 62
     7
  6
CONTINUOUS
  0
ENDTAB
  0
ENDSEC
  0
SECTION
  2
ENTITIES
  0
LINE
  8
0
 62
     0
 10
5.16613
 20
4.40201
 30
0.0
 11
5.1205
 21
4.39729
 31
0.0
  0
LINE
  8
0
 62
     0
 10
5.1205
 20
4.39729
 30
0.0
 11
5.08062
 21
4.38314
 31
0.0
  0
LINE
  8
0
 62
     0
 10
5.08062
 20
4.38314
 30
0.0
 11
5.04644
 21
4.3604
 31
0.0
  0
LINE
  8
0
 62
     0
 10
5.04644
 20
4.3604
 30
0.0
 11
5.01812
 21
4.32954
 31
0.0
  0
LINE
  8
0
 62
     0
 10
5.01812
 20
4.32954
 30
0.0
 11
4.97993
 21
4.24425
 31
0.0
  0
LINE
  8
0
 62
     0
 10
4.97993
 20
4.24425
 30
0.0
 11
4.9669
 21
4.13183
 31
0.0
  0
LINE
  8
0
 62
     0
 10
4.9669
 20
4.13183
 30
0.0
 11
4.97863
 21
4.01878
 31
0.0
  0
LINE
  8
0
 62
     0
 10
4.97863
 20
4.01878
 30
0.0
 11
4.99343
 21
3.97336
 31
0.0
  0
LINE
  8
0
 62
     0
 10
4.99343
 20
3.97336
 30
0.0
 11
5.01443
 21
3.93565
 31
0.0
  0
LINE
  8
0
 62
     0
 10
5.01443
 20
3.93565
 30
0.0
 11
5.04194
 21
3.90582
 31
0.0
  0
LINE
  8
0
 62
     0
 10
5.04194
 20
3.90582
 30
0.0
 11
5.07628
 21
3.884
 31
0.0
  0
LINE
  8
0
 62
     0
 10
5.07628
 20
3.884
 30
0.0
 11
5.11762
 21
3.87082
 31
0.0
  0
LINE
  8
0
 62
     0
 10
5.11762
 20
3.87082
 30
0.0
 11
5.16613
 21
3.86643
 31
0.0
  0
LINE
  8
0
 62
     0
 10
5.16613
 20
3.86643
 30
0.0
 11
5.26292
 21
3.87728
 31
0.0
  0
LINE
  8
0
 62
     0
 10
5.26292
 20
3.87728
 30
0.0
 11
5.36838
 21
3.90831
 31
0.0
  0
LINE
  8
0
 62
     0
 10
5.36838
 20
3.90831
 30
0.0
 11
5.36838
 21
3.76725
 31
0.0
  0
LINE
  8
0
 62
     0
 10
5.36838
 20
3.76725
 30
0.0
 11
5.31674
 21
3.74881
 31
0.0
  0
LINE
  8
0
 62
     0
 10
5.31674
 20
3.74881
 30
0.0
 11
5.26465
 21
3.73622
 31
0.0
  0
LINE
  8
0
 62
     0
 10
5.26465
 20
3.73622
 30
0.0
 11
5.21018
 21
3.72885
 31
0.0
  0
LINE
  8
0
 62
     0
 10
5.21018
 20
3.72885
 30
0.0
 11
5.15028
 21
3.72646
 31
0.0
  0
LINE
  8
0
 62
     0
 10
5.15028
 20
3.72646
 30
0.0
 11
5.06472
 21
3.73378
 31
0.0
  0
LINE
  8
0
 62
     0
 10
5.06472
 20
3.73378
 30
0.0
 11
4.99143
 21
3.75575
 31
0.0
  0
LINE
  8
0
 62
     0
 10
4.99143
 20
3.75575
 30
0.0
 11
4.9299
 21
3.79101
 31
0.0
  0
LINE
  8
0
 62
     0
 10
4.9299
 20
3.79101
 30
0.0
 11
4.8801
 21
3.83822
 31
0.0
  0
LINE
  8
0
 62
     0
 10
4.8801
 20
3.83822
 30
0.0
 11
4.84185
 21
3.89681
 31
0.0
  0
LINE
  8
0
 62
     0
 10
4.84185
 20
3.89681
 30
0.0
 11
4.815
 21
3.96625
 31
0.0
  0
LINE
  8
0
 62
     0
 10
4.815
 20
3.96625
 30
0.0
 11
4.79915
 21
4.04536
 31
0.0
  0
LINE
  8
0
 62
     0
 10
4.79915
 20
4.04536
 30
0.0
 11
4.79394
 21
4.13292
 31
0.0
  0
LINE
  8
0
 62
     0
 10
4.79394
 20
4.13292
 30
0.0
 11
4.79997
 21
4.21924
 31
0.0
  0
LINE
  8
0
 62
     0
 10
4.79997
 20
4.21924
 30
0.0
 11
4.81825
 21
4.29807
 31
0.0
  0
LINE
  8
0
 62
     0
 10
4.81825
 20
4.29807
 30
0.0
 11
4.84836
 21
4.36794
 31
0.0
  0
LINE
  8
0
 62
     0
 10
4.84836
 20
4.36794
 30
0.0
 11
4.88986
 21
4.4274
 31
0.0
  0
LINE
  8
0
 62
     0
 10
4.88986
 20
4.4274
 30
0.0
 11
4.94265
 21
4.47564
 31
0.0
  0
LINE
  8
0
 62
     0
 10
4.94265
 20
4.47564
 30
0.0
 11
5.00662
 21
4.51183
 31
0.0
  0
LINE
  8
0
 62
     0
 10
5.00662
 20
4.51183
 30
0.0
 11
5.08117
 21
4.53444
 31
0.0
  0
LINE
  8
0
 62
     0
 10
5.08117
 20
4.53444
 30
0.0
 11
5.16613
 21
4.54199
 31
0.0
  0
LINE
  8
0
 62
     0
 10
5.16613
 20
4.54199
 30
0.0
 11
5.28461
 21
4.52701
 31
0.0
  0
LINE
  8
0
 62
     0
 10
5.28461
 20
4.52701
 30
0.0
 11
5.39833
 21
4.486
 31
0.0
  0
LINE
  8
0
 62
     0
 10
5.39833
 20
4.486
 30
0.0
 11
5.34407
 21
4.34928
 31
0.0
  0
LINE
  8
0
 62
     0
 10
5.34407
 20
4.34928
 30
0.0
 11
5.25444
 21
4.38618
 31
0.0
  0
LINE
  8
0
 62
     0
 10
5.25444
 20
4.38618
 30
0.0
 11
5.16613
 21
4.40201
 31
0.0
  0
LINE
  8
0
 62
     0
 10
5.66351
 20
4.04178
 30
0.0
 11
5.66986
 21
3.96229
 31
0.0
  0
LINE
  8
0
 62
     0
 10
5.66986
 20
3.96229
 30
0.0
 11
5.68892
 21
3.90528
 31
0.0
  0
LINE
  8
0
 62
     0
 10
5.68892
 20
3.90528
 30
0.0
 11
5.72244
 21
3.87093
 31
0.0
  0
LINE
  8
0
 62
     0
 10
5.72244
 20
3.87093
 30
0.0
 11
5.77203
 21
3.85949
 31
0.0
  0
LINE
  8
0
 62
     0
 10
5.77203
 20
3.85949
 30
0.0
 11
5.82113
 21
3.87099
 31
0.0
  0
LINE
  8
0
 62
     0
 10
5.82113
 20
3.87099
 30
0.0
 11
5.85449
 21
3.90549
 31
0.0
  0
LINE
  8
0
 62
     0
 10
5.85449
 20
3.90549
 30
0.0
 11
5.87364
 21
3.96267
 31
0.0
  0
LINE
  8
0
 62
     0
 10
5.87364
 20
3.96267
 30
0.0
 11
5.8801
 21
4.04178
 31
0.0
  0
LINE
  8
0
 62
     0
 10
5.8801
 20
4.04178
 30
0.0
 11
5.87364
 21
4.12082
 31
0.0
  0
LINE
  8
0
 62
     0
 10
5.87364
 20
4.12082
 30
0.0
 11
5.85449
 21
4.17697
 31
0.0
  0
LINE
  8
0
 62
     0
 10
5.85449
 20
4.17697
 30
0.0
 11
5.82086
 21
4.21067
 31
0.0
  0
LINE
  8
0
 62
     0
 10
5.82086
 20
4.21067
 30
0.0
 11
5.77094
 21
4.2219
 31
0.0
  0
LINE
  8
0
 62
     0
 10
5.77094
 20
4.2219
 30
0.0
 11
5.7219
 21
4.21067
 31
0.0
  0
LINE
  8
0
 62
     0
 10
5.7219
 20
4.21067
 30
0.0
 11
5.68869
 21
4.17697
 31
0.0
  0
LINE
  8
0
 62
     0
 10
5.68869
 20
4.17697
 30
0.0
 11
5.66976
 21
4.12082
 31
0.0
  0
LINE
  8
0
 62
     0
 10
5.66976
 20
4.12082
 30
0.0
 11
5.66351
 21
4.04178
 31
0.0
  0
LINE
  8
0
 62
     0
 10
6.04872
 20
4.04178
 30
0.0
 11
6.04383
 21
3.97017
 31
0.0
  0
LINE
  8
0
 62
     0
 10
6.04383
 20
3.97017
 30
0.0
 11
6.0294
 21
3.90722
 31
0.0
  0
LINE
  8
0
 62
     0
 10
6.0294
 20
3.90722
 30
0.0
 11
6.00597
 21
3.85325
 31
0.0
  0
LINE
  8
0
 62
     0
 10
6.00597
 20
3.85325
 30
0.0
 11
5.97407
 21
3.80849
 31
0.0
  0
LINE
  8
0
 62
     0
 10
5.97407
 20
3.80849
 30
0.0
 11
5.93403
 21
3.77311
 31
0.0
  0
LINE
  8
0
 62
     0
 10
5.93403
 20
3.77311
 30
0.0
 11
5.88618
 21
3.74729
 31
0.0
  0
LINE
  8
0
 62
     0
 10
5.88618
 20
3.74729
 30
0.0
 11
5.83122
 21
3.73167
 31
0.0
  0
LINE
  8
0
 62
     0
 10
5.83122
 20
3.73167
 30
0.0
 11
5.76986
 21
3.72646
 31
0.0
  0
LINE
  8
0
 62
     0
 10
5.76986
 20
3.72646
 30
0.0
 11
5.71208
 21
3.73167
 31
0.0
  0
LINE
  8
0
 62
     0
 10
5.71208
 20
3.73167
 30
0.0
 11
5.65918
 21
3.74729
 31
0.0
  0
LINE
  8
0
 62
     0
 10
5.65918
 20
3.74729
 30
0.0
 11
5.61219
 21
3.77311
 31
0.0
  0
LINE
  8
0
 62
     0
 10
5.61219
 20
3.77311
 30
0.0
 11
5.57215
 21
3.80849
 31
0.0
  0
LINE
  8
0
 62
     0
 10
5.57215
 20
3.80849
 30
0.0
 11
5.53944
 21
3.85325
 31
0.0
  0
LINE
  8
0
 62
     0
 10
5.53944
 20
3.85325
 30
0.0
 11
5.51486
 21
3.90722
 31
0.0
  0
LINE
  8
0
 62
     0
 10
5.51486
 20
3.90722
 30
0.0
 11
5.49935
 21
3.97017
 31
0.0
  0
LINE
  8
0
 62
     0
 10
5.49935
 20
3.97017
 30
0.0
 11
5.49425
 21
4.04178
 31
0.0
  0
LINE
  8
0
 62
     0
 10
5.49425
 20
4.04178
 30
0.0
 11
5.49903
 21
4.1129
 31
0.0
  0
LINE
  8
0
 62
     0
 10
5.49903
 20
4.1129
 30
0.0
 11
5.51357
 21
4.17567
 31
0.0
  0
LINE
  8
0
 62
     0
 10
5.51357
 20
4.17567
 30
0.0
 11
5.537
 21
4.2296
 31
0.0
  0
LINE
  8
0
 62
     0
 10
5.537
 20
4.2296
 30
0.0
 11
5.5689
 21
4.27419
 31
0.0
  0
LINE
  8
0
 62
     0
 10
5.5689
 20
4.27419
 30
0.0
 11
5.60872
 21
4.30931
 31
0.0
  0
LINE
  8
0
 62
     0
 10
5.60872
 20
4.30931
 30
0.0
 11
5.65636
 21
4.33475
 31
0.0
  0
LINE
  8
0
 62
     0
 10
5.65636
 20
4.33475
 30
0.0
 11
5.71132
 21
4.35021
 31
0.0
  0
LINE
  8
0
 62
     0
 10
5.71132
 20
4.35021
 30
0.0
 11
5.77311
 21
4.35536
 31
0.0
  0
LINE
  8
0
 62
     0
 10
5.77311
 20
4.35536
 30
0.0
 11
5.83089
 21
4.35021
 31
0.0
  0
LINE
  8
0
 62
     0
 10
5.83089
 20
4.35021
 30
0.0
 11
5.88379
 21
4.33475
 31
0.0
  0
LINE
  8
0
 62
     0
 10
5.88379
 20
4.33475
 30
0.0
 11
5.93078
 21
4.30931
 31
0.0
  0
LINE
  8
0
 62
     0
 10
5.93078
 20
4.30931
 30
0.0
 11
5.97081
 21
4.27419
 31
0.0
  0
LINE
  8
0
 62
     0
 10
5.97081
 20
4.27419
 30
0.0
 11
6.00342
 21
4.2296
 31
0.0
  0
LINE
  8
0
 62
     0
 10
6.00342
 20
4.2296
 30
0.0
 11
6.0281
 21
4.17567
 31
0.0
  0
LINE
  8
0
 62
     0
 10
6.0281
 20
4.17567
 30
0.0
 11
6.04351
 21
4.1129
 31
0.0
  0
LINE
  8
0
 62
     0
 10
6.04351
 20
4.1129
 30
0.0
 11
6.04872
 21
4.04178
 31
0.0
  0
LINE
  8
0
 62
     0
 10
6.20497
 20
3.73731
 30
0.0
 11
6.20497
 21
4.53049
 31
0.0
  0
LINE
  8
0
 62
     0
 10
6.20497
 20
4.53049
 30
0.0
 11
6.37315
 21
4.53049
 31
0.0
  0
LINE
  8
0
 62
     0
 10
6.37315
 20
4.53049
 30
0.0
 11
6.37315
 21
3.87619
 31
0.0
  0
LINE
  8
0
 62
     0
 10
6.37315
 20
3.87619
 30
0.0
 11
6.66178
 21
3.87619
 31
0.0
  0
LINE
  8
0
 62
     0
 10
6.66178
 20
3.87619
 30
0.0
 11
6.66178
 21
3.73731
 31
0.0
  0
LINE
  8
0
 62
     0
 10
6.66178
 20
3.73731
 30
0.0
 11
6.20497
 21
3.73731
 31
0.0
  0
LINE
  8
0
 62
     0
 10
7.13878
 20
3.73731
 30
0.0
 11
7.10667
 21
3.81976
 31
0.0
  0
LINE
  8
0
 62
     0
 10
7.10667
 20
3.81976
 30
0.0
 11
7.10189
 21
3.81976
 31
0.0
  0
LINE
  8
0
 62
     0
 10
7.10189
 20
3.81976
 30
0.0
 11
7.06586
 21
3.77767
 31
0.0
  0
LINE
  8
0
 62
     0
 10
7.06586
 20
3.77767
 30
0.0
 11
7.02681
 21
3.74858
 31
0.0
  0
LINE
  8
0
 62
     0
 10
7.02681
 20
3.74858
 30
0.0
 11
6.97949
 21
3.73188
 31
0.0
  0
LINE
  8
0
 62
     0
 10
6.97949
 20
3.73188
 30
0.0
 11
6.91851
 21
3.72646
 31
0.0
  0
LINE
  8
0
 62
     0
 10
6.91851
 20
3.72646
 30
0.0
 11
6.85015
 21
3.73817
 31
0.0
  0
LINE
  8
0
 62
     0
 10
6.85015
 20
3.73817
 30
0.0
 11
6.79546
 21
3.77333
 31
0.0
  0
LINE
  8
0
 62
     0
 10
6.79546
 20
3.77333
 30
0.0
 11
6.75944
 21
3.83301
 31
0.0
  0
LINE
  8
0
 62
     0
 10
6.75944
 20
3.83301
 30
0.0
 11
6.74642
 21
3.91851
 31
0.0
  0
LINE
  8
0
 62
     0
 10
6.74642
 20
3.91851
 30
0.0
 11
6.75028
 21
3.96365
 31
0.0
  0
LINE
  8
0
 62
     0
 10
6.75028
 20
3.96365
 30
0.0
 11
6.76188
 21
4.00239
 31
0.0
  0
LINE
  8
0
 62
     0
 10
6.76188
 20
4.00239
 30
0.0
 11
6.78119
 21
4.03483
 31
0.0
  0
LINE
  8
0
 62
     0
 10
6.78119
 20
4.03483
 30
0.0
 11
6.80826
 21
4.06087
 31
0.0
  0
LINE
  8
0
 62
     0
 10
6.80826
 20
4.06087
 30
0.0
 11
6.88542
 21
4.09657
 31
0.0
  0
LINE
  8
0
 62
     0
 10
6.88542
 20
4.09657
 30
0.0
 11
6.99338
 21
4.11165
 31
0.0
  0
LINE
  8
0
 62
     0
 10
6.99338
 20
4.11165
 30
0.0
 11
7.08996
 21
4.1149
 31
0.0
  0
LINE
  8
0
 62
     0
 10
7.08996
 20
4.1149
 30
0.0
 11
7.08996
 21
4.16049
 31
0.0
  0
LINE
  8
0
 62
     0
 10
7.08996
 20
4.16049
 30
0.0
 11
7.08447
 21
4.19308
 31
0.0
  0
LINE
  8
0
 62
     0
 10
7.08447
 20
4.19308
 30
0.0
 11
7.06825
 21
4.21582
 31
0.0
  0
LINE
  8
0
 62
     0
 10
7.06825
 20
4.21582
 30
0.0
 11
7.04215
 21
4.22933
 31
0.0
  0
LINE
  8
0
 62
     0
 10
7.04215
 20
4.22933
 30
0.0
 11
7.00749
 21
4.23383
 31
0.0
  0
LINE
  8
0
 62
     0
 10
7.00749
 20
4.23383
 30
0.0
 11
6.9311
 21
4.22233
 31
0.0
  0
LINE
  8
0
 62
     0
 10
6.9311
 20
4.22233
 30
0.0
 11
6.85667
 21
4.19194
 31
0.0
  0
LINE
  8
0
 62
     0
 10
6.85667
 20
4.19194
 30
0.0
 11
6.80285
 21
4.30154
 31
0.0
  0
LINE
  8
0
 62
     0
 10
6.80285
 20
4.30154
 30
0.0
 11
6.90375
 21
4.34169
 31
0.0
  0
LINE
  8
0
 62
     0
 10
6.90375
 20
4.34169
 30
0.0
 11
7.01986
 21
4.35644
 31
0.0
  0
LINE
  8
0
 62
     0
 10
7.01986
 20
4.35644
 30
0.0
 11
7.12001
 21
4.34315
 31
0.0
  0
LINE
  8
0
 62
     0
 10
7.12001
 20
4.34315
 30
0.0
 11
7.19368
 21
4.30328
 31
0.0
  0
LINE
  8
0
 62
     0
 10
7.19368
 20
4.30328
 30
0.0
 11
7.22017
 21
4.27322
 31
0.0
  0
LINE
  8
0
 62
     0
 10
7.22017
 20
4.27322
 30
0.0
 11
7.2391
 21
4.23628
 31
0.0
  0
LINE
  8
0
 62
     0
 10
7.2391
 20
4.23628
 30
0.0
 11
7.25043
 21
4.19243
 31
0.0
  0
LINE
  8
0
 62
     0
 10
7.25043
 20
4.19243
 30
0.0
 11
7.25424
 21
4.1416
 31
0.0
  0
LINE
  8
0
 62
     0
 10
7.25424
 20
4.1416
 30
0.0
 11
7.25424
 21
3.73731
 31
0.0
  0
LINE
  8
0
 62
     0
 10
7.25424
 20
3.73731
 30
0.0
 11
7.13878
 21
3.73731
 31
0.0
  0
LINE
  8
0
 62
     0
 10
7.08996
 20
4.01833
 30
0.0
 11
7.03504
 21
4.01617
 31
0.0
  0
LINE
  8
0
 62
     0
 10
7.03504
 20
4.01617
 30
0.0
 11
6.97928
 21
4.00749
 31
0.0
  0
LINE
  8
0
 62
     0
 10
6.97928
 20
4.00749
 30
0.0
 11
6.9426
 21
3.98708
 31
0.0
  0
LINE
  8
0
 62
     0
 10
6.9426
 20
3.98708
 30
0.0
 11
6.92242
 21
3.95671
 31
0.0
  0
LINE
  8
0
 62
     0
 10
6.92242
 20
3.95671
 30
0.0
 11
6.91635
 21
3.91743
 31
0.0
  0
LINE
  8
0
 62
     0
 10
6.91635
 20
3.91743
 30
0.0
 11
6.9209
 21
3.88493
 31
0.0
  0
LINE
  8
0
 62
     0
 10
6.9209
 20
3.88493
 30
0.0
 11
6.93479
 21
3.86339
 31
0.0
  0
LINE
  8
0
 62
     0
 10
6.93479
 20
3.86339
 30
0.0
 11
6.98296
 21
3.84754
 31
0.0
  0
LINE
  8
0
 62
     0
 10
6.98296
 20
3.84754
 30
0.0
 11
7.02528
 21
3.85536
 31
0.0
  0
LINE
  8
0
 62
     0
 10
7.02528
 20
3.85536
 30
0.0
 11
7.05914
 21
3.87858
 31
0.0
  0
LINE
  8
0
 62
     0
 10
7.05914
 20
3.87858
 30
0.0
 11
7.08171
 21
3.91656
 31
0.0
  0
LINE
  8
0
 62
     0
 10
7.08171
 20
3.91656
 30
0.0
 11
7.08996
 21
3.96843
 31
0.0
  0
LINE
  8
0
 62
     0
 10
7.08996
 20
3.96843
 30
0.0
 11
7.08996
 21
4.01833
 31
0.0
  0
LINE
  8
0
 62
     0
 10
7.74794
 20
4.35536
 30
0.0
 11
7.79249
 21
4.35032
 31
0.0
  0
LINE
  8
0
 62
     0
 10
7.79249
 20
4.35032
 30
0.0
 11
7.83301
 21
4.33518
 31
0.0
  0
LINE
  8
0
 62
     0
 10
7.83301
 20
4.33518
 30
0.0
 11
7.86882
 21
4.31028
 31
0.0
  0
LINE
  8
0
 62
     0
 10
7.86882
 20
4.31028
 30
0.0
 11
7.89919
 21
4.2755
 31
0.0
  0
LINE
  8
0
 62
     0
 10
7.89919
 20
4.2755
 30
0.0
 11
7.92383
 21
4.23122
 31
0.0
  0
LINE
  8
0
 62
     0
 10
7.92383
 20
4.23122
 30
0.0
 11
7.94239
 21
4.1774
 31
0.0
  0
LINE
  8
0
 62
     0
 10
7.94239
 20
4.1774
 30
0.0
 11
7.9541
 21
4.11421
 31
0.0
  0
LINE
  8
0
 62
     0
 10
7.9541
 20
4.11421
 30
0.0
 11
7.95801
 21
4.04178
 31
0.0
  0
LINE
  8
0
 62
     0
 10
7.95801
 20
4.04178
 30
0.0
 11
7.9541
 21
3.96843
 31
0.0
  0
LINE
  8
0
 62
     0
 10
7.9541
 20
3.96843
 30
0.0
 11
7.94239
 21
3.90462
 31
0.0
  0
LINE
  8
0
 62
     0
 10
7.94239
 20
3.90462
 30
0.0
 11
7.92372
 21
3.85058
 31
0.0
  0
LINE
  8
0
 62
     0
 10
7.92372
 20
3.85058
 30
0.0
 11
7.89876
 21
3.8061
 31
0.0
  0
LINE
  8
0
 62
     0
 10
7.89876
 20
3.8061
 30
0.0
 11
7.86762
 21
3.77143
 31
0.0
  0
LINE
  8
0
 62
     0
 10
7.86762
 20
3.77143
 30
0.0
 11
7.83083
 21
3.74642
 31
0.0
  0
LINE
  8
0
 62
     0
 10
7.83083
 20
3.74642
 30
0.0
 11
7.78922
 21
3.7315
 31
0.0
  0
LINE
  8
0
 62
     0
 10
7.78922
 20
3.7315
 30
0.0
 11
7.7436
 21
3.72646
 31
0.0
  0
LINE
  8
0
 62
     0
 10
7.7436
 20
3.72646
 30
0.0
 11
7.68956
 21
3.73296
 31
0.0
  0
LINE
  8
0
 62
     0
 10
7.68956
 20
3.73296
 30
0.0
 11
7.64768
 21
3.75032
 31
0.0
  0
LINE
  8
0
 62
     0
 10
7.64768
 20
3.75032
 30
0.0
 11
7.61535
 21
3.77507
 31
0.0
  0
LINE
  8
0
 62
     0
 10
7.61535
 20
3.77507
 30
0.0
 11
7.59017
 21
3.80414
 31
0.0
  0
LINE
  8
0
 62
     0
 10
7.59017
 20
3.80414
 30
0.0
 11
7.57867
 21
3.80414
 31
0.0
  0
LINE
  8
0
 62
     0
 10
7.57867
 20
3.80414
 30
0.0
 11
7.55111
 21
3.73731
 31
0.0
  0
LINE
  8
0
 62
     0
 10
7.55111
 20
3.73731
 30
0.0
 11
7.42458
 21
3.73731
 31
0.0
  0
LINE
  8
0
 62
     0
 10
7.42458
 20
3.73731
 30
0.0
 11
7.42458
 21
4.58149
 31
0.0
  0
LINE
  8
0
 62
     0
 10
7.42458
 20
4.58149
 30
0.0
 11
7.59017
 21
4.58149
 31
0.0
  0
LINE
  8
0
 62
     0
 10
7.59017
 20
4.58149
 30
0.0
 11
7.59017
 21
4.3851
 31
0.0
  0
LINE
  8
0
 62
     0
 10
7.59017
 20
4.3851
 30
0.0
 11
7.58908
 21
4.34625
 31
0.0
  0
LINE
  8
0
 62
     0
 10
7.58908
 20
4.34625
 30
0.0
 11
7.58692
 21
4.30761
 31
0.0
  0
LINE
  8
0
 62
     0
 10
7.58692
 20
4.30761
 30
0.0
 11
7.58365
 21
4.26531
 31
0.0
  0
LINE
  8
0
 62
     0
 10
7.58365
 20
4.26531
 30
0.0
 11
7.59017
 21
4.26531
 31
0.0
  0
LINE
  8
0
 62
     0
 10
7.59017
 20
4.26531
 30
0.0
 11
7.616
 21
4.30046
 31
0.0
  0
LINE
  8
0
 62
     0
 10
7.616
 20
4.30046
 30
0.0
 11
7.65007
 21
4.32889
 31
0.0
  0
LINE
  8
0
 62
     0
 10
7.65007
 20
4.32889
 30
0.0
 11
7.69368
 21
4.34819
 31
0.0
  0
LINE
  8
0
 62
     0
 10
7.69368
 20
4.34819
 30
0.0
 11
7.74794
 21
4.35536
 31
0.0
  0
LINE
  8
0
 62
     0
 10
7.69217
 20
4.22299
 30
0.0
 11
7.64507
 21
4.21278
 31
0.0
  0
LINE
  8
0
 62
     0
 10
7.64507
 20
4.21278
 30
0.0
 11
7.61404
 21
4.18261
 31
0.0
  0
LINE
  8
0
 62
     0
 10
7.61404
 20
4.18261
 30
0.0
 11
7.59668
 21
4.13206
 31
0.0
  0
LINE
  8
0
 62
     0
 10
7.59668
 20
4.13206
 30
0.0
 11
7.59017
 21
4.06065
 31
0.0
  0
LINE
  8
0
 62
     0
 10
7.59017
 20
4.06065
 30
0.0
 11
7.59017
 21
4.04286
 31
0.0
  0
LINE
  8
0
 62
     0
 10
7.59017
 20
4.04286
 30
0.0
 11
7.59517
 21
3.96451
 31
0.0
  0
LINE
  8
0
 62
     0
 10
7.59517
 20
3.96451
 30
0.0
 11
7.61231
 21
3.90744
 31
0.0
  0
LINE
  8
0
 62
     0
 10
7.61231
 20
3.90744
 30
0.0
 11
7.64399
 21
3.8725
 31
0.0
  0
LINE
  8
0
 62
     0
 10
7.64399
 20
3.8725
 30
0.0
 11
7.69325
 21
3.86057
 31
0.0
  0
LINE
  8
0
 62
     0
 10
7.69325
 20
3.86057
 30
0.0
 11
7.73589
 21
3.87229
 31
0.0
  0
LINE
  8
0
 62
     0
 10
7.73589
 20
3.87229
 30
0.0
 11
7.76551
 21
3.90744
 31
0.0
  0
LINE
  8
0
 62
     0
 10
7.76551
 20
3.90744
 30
0.0
 11
7.78288
 21
3.965
 31
0.0
  0
LINE
  8
0
 62
     0
 10
7.78288
 20
3.965
 30
0.0
 11
7.78874
 21
4.04394
 31
0.0
  0
LINE
  8
0
 62
     0
 10
7.78874
 20
4.04394
 30
0.0
 11
7.78288
 21
4.12218
 31
0.0
  0
LINE
  8
0
 62
     0
 10
7.78288
 20
4.12218
 30
0.0
 11
7.76551
 21
4.17806
 31
0.0
  0
LINE
  8
0
 62
     0
 10
7.76551
 20
4.17806
 30
0.0
 11
7.73563
 21
4.21175
 31
0.0
  0
LINE
  8
0
 62
     0
 10
7.73563
 20
4.21175
 30
0.0
 11
7.69217
 21
4.22299
 31
0.0
  0
ENDSEC
  0
EOF
