  0
SECTION
  2
HEADER
  9
$ACADVER
  1
AC1009
  9
$EXTMIN
 10
0.0
 20
0.0
 30
0.0
  9
$EXTMAX
 10
1000.0
 20
1000.0
 30
0.0
  9
$FILLMODE
 70
 0
  9
$SPLFRAME
 70
 1
  0
ENDSEC
  0
SECTION
  2
TABLES
  0
TABLE
  2
LAYER
 70
1
  0
LAYER
  2
0
 70
     0
 62
     7
  6
CONTINUOUS
  0
ENDTAB
  0
ENDSEC
  0
SECTION
  2
ENTITIES
  0
LINE
  8
0
 62
     0
 10
8.51443
 20
4.14393
 30
0.0
 11
8.50065
 21
3.96474
 31
0.0
  0
LINE
  8
0
 62
     0
 10
8.50065
 20
3.96474
 30
0.0
 11
8.46018
 21
3.79064
 31
0.0
  0
LINE
  8
0
 62
     0
 10
8.46018
 20
3.79064
 30
0.0
 11
8.39447
 21
3.62267
 31
0.0
  0
LINE
  8
0
 62
     0
 10
8.39447
 20
3.62267
 30
0.0
 11
8.30474
 21
3.46158
 31
0.0
  0
LINE
  8
0
 62
     0
 10
8.30474
 20
3.46158
 30
0.0
 11
8.19239
 21
3.30832
 31
0.0
  0
LINE
  8
0
 62
     0
 10
8.19239
 20
3.30832
 30
0.0
 11
8.05875
 21
3.16379
 31
0.0
  0
LINE
  8
0
 62
     0
 10
8.05875
 20
3.16379
 30
0.0
 11
7.90517
 21
3.02881
 31
0.0
  0
LINE
  8
0
 62
     0
 10
7.90517
 20
3.02881
 30
0.0
 11
7.73296
 21
2.90435
 31
0.0
  0
LINE
  8
0
 62
     0
 10
7.73296
 20
2.90435
 30
0.0
 11
7.54351
 21
2.79118
 31
0.0
  0
LINE
  8
0
 62
     0
 10
7.54351
 20
2.79118
 30
0.0
 11
7.33811
 21
2.69026
 31
0.0
  0
LINE
  8
0
 62
     0
 10
7.33811
 20
2.69026
 30
0.0
 11
7.11817
 21
2.60243
 31
0.0
  0
LINE
  8
0
 62
     0
 10
7.11817
 20
2.60243
 30
0.0
 11
6.88493
 21
2.52864
 31
0.0
  0
LINE
  8
0
 62
     0
 10
6.88493
 20
2.52864
 30
0.0
 11
6.63981
 21
2.46967
 31
0.0
  0
LINE
  8
0
 62
     0
 10
6.63981
 20
2.46967
 30
0.0
 11
6.38411
 21
2.42649
 31
0.0
  0
LINE
  8
0
 62
     0
 10
6.38411
 20
2.42649
 30
0.0
 11
6.11919
 21
2.3999
 31
0.0
  0
LINE
  8
0
 62
     0
 10
6.11919
 20
2.3999
 30
0.0
 11
5.84646
 21
2.39085
 31
0.0
  0
LINE
  8
0
 62
     0
 10
5.84646
 20
2.39085
 30
0.0
 11
5.57362
 21
2.3999
 31
0.0
  0
LINE
  8
0
 62
     0
 10
5.57362
 20
2.3999
 30
0.0
 11
5.30875
 21
2.42649
 31
0.0
  0
LINE
  8
0
 62
     0
 10
5.30875
 20
2.42649
 30
0.0
 11
5.05306
 21
2.46967
 31
0.0
  0
LINE
  8
0
 62
     0
 10
5.05306
 20
2.46967
 30
0.0
 11
4.80789
 21
2.52864
 31
0.0
  0
LINE
  8
0
 62
     0
 10
4.80789
 20
2.52864
 30
0.0
 11
4.57471
 21
2.60243
 31
0.0
  0
LINE
  8
0
 62
     0
 10
4.57471
 20
2.60243
 30
0.0
 11
4.35471
 21
2.69026
 31
0.0
  0
LINE
  8
0
 62
     0
 10
4.35471
 20
2.69026
 30
0.0
 11
4.14931
 21
2.79118
 31
0.0
  0
LINE
  8
0
 62
     0
 10
4.14931
 20
2.79118
 30
0.0
 11
3.95985
 21
2.90435
 31
0.0
  0
LINE
  8
0
 62
     0
 10
3.95985
 20
2.90435
 30
0.0
 11
3.78765
 21
3.02881
 31
0.0
  0
LINE
  8
0
 62
     0
 10
3.78765
 20
3.02881
 30
0.0
 11
3.63406
 21
3.16379
 31
0.0
  0
LINE
  8
0
 62
     0
 10
3.63406
 20
3.16379
 30
0.0
 11
3.50043
 21
3.30832
 31
0.0
  0
LINE
  8
0
 62
     0
 10
3.50043
 20
3.30832
 30
0.0
 11
3.38807
 21
3.46158
 31
0.0
  0
LINE
  8
0
 62
     0
 10
3.38807
 20
3.46158
 30
0.0
 11
3.29833
 21
3.62267
 31
0.0
  0
LINE
  8
0
 62
     0
 10
3.29833
 20
3.62267
 30
0.0
 11
3.23264
 21
3.79064
 31
0.0
  0
LINE
  8
0
 62
     0
 10
3.23264
 20
3.79064
 30
0.0
 11
3.19217
 21
3.96474
 31
0.0
  0
LINE
  8
0
 62
     0
 10
3.19217
 20
3.96474
 30
0.0
 11
3.17844
 21
4.14393
 31
0.0
  0
LINE
  8
0
 62
     0
 10
3.17844
 20
4.14393
 30
0.0
 11
3.19217
 21
4.32319
 31
0.0
  0
LINE
  8
0
 62
     0
 10
3.19217
 20
4.32319
 30
0.0
 11
3.23264
 21
4.49729
 31
0.0
  0
LINE
  8
0
 62
     0
 10
3.23264
 20
4.49729
 30
0.0
 11
3.29833
 21
4.66525
 31
0.0
  0
LINE
  8
0
 62
     0
 10
3.29833
 20
4.66525
 30
0.0
 11
3.38807
 21
4.82633
 31
0.0
  0
LINE
  8
0
 62
     0
 10
3.38807
 20
4.82633
 30
0.0
 11
3.50043
 21
4.9796
 31
0.0
  0
LINE
  8
0
 62
     0
 10
3.50043
 20
4.9796
 30
0.0
 11
3.63406
 21
5.12414
 31
0.0
  0
LINE
  8
0
 62
     0
 10
3.63406
 20
5.12414
 30
0.0
 11
3.78765
 21
5.25906
 31
0.0
  0
LINE
  8
0
 62
     0
 10
3.78765
 20
5.25906
 30
0.0
 11
3.95985
 21
5.38357
 31
0.0
  0
LINE
  8
0
 62
     0
 10
3.95985
 20
5.38357
 30
0.0
 11
4.14931
 21
5.49669
 31
0.0
  0
LINE
  8
0
 62
     0
 10
4.14931
 20
5.49669
 30
0.0
 11
4.35471
 21
5.5976
 31
0.0
  0
LINE
  8
0
 62
     0
 10
4.35471
 20
5.5976
 30
0.0
 11
4.57471
 21
5.68544
 31
0.0
  0
LINE
  8
0
 62
     0
 10
4.57471
 20
5.68544
 30
0.0
 11
4.80789
 21
5.75922
 31
0.0
  0
LINE
  8
0
 62
     0
 10
4.80789
 20
5.75922
 30
0.0
 11
5.05306
 21
5.81819
 31
0.0
  0
LINE
  8
0
 62
     0
 10
5.05306
 20
5.81819
 30
0.0
 11
5.30875
 21
5.86139
 31
0.0
  0
LINE
  8
0
 62
     0
 10
5.30875
 20
5.86139
 30
0.0
 11
5.57362
 21
5.88797
 31
0.0
  0
LINE
  8
0
 62
     0
 10
5.57362
 20
5.88797
 30
0.0
 11
5.84646
 21
5.89697
 31
0.0
  0
LINE
  8
0
 62
     0
 10
5.84646
 20
5.89697
 30
0.0
 11
6.11919
 21
5.88797
 31
0.0
  0
LINE
  8
0
 62
     0
 10
6.11919
 20
5.88797
 30
0.0
 11
6.38411
 21
5.86139
 31
0.0
  0
LINE
  8
0
 62
     0
 10
6.38411
 20
5.86139
 30
0.0
 11
6.63981
 21
5.81819
 31
0.0
  0
LINE
  8
0
 62
     0
 10
6.63981
 20
5.81819
 30
0.0
 11
6.88493
 21
5.75922
 31
0.0
  0
LINE
  8
0
 62
     0
 10
6.88493
 20
5.75922
 30
0.0
 11
7.11817
 21
5.68544
 31
0.0
  0
LINE
  8
0
 62
     0
 10
7.11817
 20
5.68544
 30
0.0
 11
7.33811
 21
5.5976
 31
0.0
  0
LINE
  8
0
 62
     0
 10
7.33811
 20
5.5976
 30
0.0
 11
7.54351
 21
5.49669
 31
0.0
  0
LINE
  8
0
 62
     0
 10
7.54351
 20
5.49669
 30
0.0
 11
7.73296
 21
5.38357
 31
0.0
  0
LINE
  8
0
 62
     0
 10
7.73296
 20
5.38357
 30
0.0
 11
7.90517
 21
5.25906
 31
0.0
  0
LINE
  8
0
 62
     0
 10
7.90517
 20
5.25906
 30
0.0
 11
8.05875
 21
5.12414
 31
0.0
  0
LINE
  8
0
 62
     0
 10
8.05875
 20
5.12414
 30
0.0
 11
8.19239
 21
4.9796
 31
0.0
  0
LINE
  8
0
 62
     0
 10
8.19239
 20
4.9796
 30
0.0
 11
8.30474
 21
4.82633
 31
0.0
  0
LINE
  8
0
 62
     0
 10
8.30474
 20
4.82633
 30
0.0
 11
8.39447
 21
4.66525
 31
0.0
  0
LINE
  8
0
 62
     0
 10
8.39447
 20
4.66525
 30
0.0
 11
8.46018
 21
4.49729
 31
0.0
  0
LINE
  8
0
 62
     0
 10
8.46018
 20
4.49729
 30
0.0
 11
8.50065
 21
4.32319
 31
0.0
  0
LINE
  8
0
 62
     0
 10
8.50065
 20
4.32319
 30
0.0
 11
8.51443
 21
4.14393
 31
0.0
  0
ENDSEC
  0
EOF
