  0
SECTION
  2
HEADER
  9
$ACADVER
  1
AC1009
  9
$EXTMIN
 10
0.0
 20
0.0
 30
0.0
  9
$EXTMAX
 10
1000.0
 20
1000.0
 30
0.0
  9
$FILLMODE
 70
 0
  9
$SPLFRAME
 70
 1
  0
ENDSEC
  0
SECTION
  2
TABLES
  0
TABLE
  2
LAYER
 70
1
  0
LAYER
  2
0
 70
     0
 62
     7
  6
CONTINUOUS
  0
ENDTAB
  0
ENDSEC
  0
SECTION
  2
ENTITIES
  0
LINE
  8
0
 62
     72
 10
4.84978
 20
5.54671
 30
0.0
 11
4.91417
 21
5.23324
 31
0.0
  0
LINE
  8
0
 62
     72
 10
4.91417
 20
5.23324
 30
0.0
 11
4.52572
 21
5.07221
 31
0.0
  0
LINE
  8
0
 62
     72
 10
4.52572
 20
5.07221
 30
0.0
 11
4.34961
 21
5.33946
 31
0.0
  0
LINE
  8
0
 62
     72
 10
4.34961
 20
5.33946
 30
0.0
 11
3.94222
 21
4.93229
 31
0.0
  0
LINE
  8
0
 62
     72
 10
3.94222
 20
4.93229
 30
0.0
 11
4.20953
 21
4.75597
 31
0.0
  0
LINE
  8
0
 62
     72
 10
4.20953
 20
4.75597
 30
0.0
 11
4.04867
 21
4.36751
 31
0.0
  0
LINE
  8
0
 62
     72
 10
4.04867
 20
4.36751
 30
0.0
 11
3.73503
 21
4.43192
 31
0.0
  0
LINE
  8
0
 62
     72
 10
3.73503
 20
4.43192
 30
0.0
 11
3.73503
 21
3.8559
 31
0.0
  0
LINE
  8
0
 62
     72
 10
3.73503
 20
3.8559
 30
0.0
 11
4.04867
 21
3.92031
 31
0.0
  0
LINE
  8
0
 62
     72
 10
4.04867
 20
3.92031
 30
0.0
 11
4.20953
 21
3.53185
 31
0.0
  0
LINE
  8
0
 62
     72
 10
4.20953
 20
3.53185
 30
0.0
 11
3.94222
 21
3.35558
 31
0.0
  0
LINE
  8
0
 62
     72
 10
3.94222
 20
3.35558
 30
0.0
 11
4.34961
 21
2.94835
 31
0.0
  0
LINE
  8
0
 62
     72
 10
4.34961
 20
2.94835
 30
0.0
 11
4.52572
 21
3.21565
 31
0.0
  0
LINE
  8
0
 62
     72
 10
4.52572
 20
3.21565
 30
0.0
 11
4.91417
 21
3.05464
 31
0.0
  0
LINE
  8
0
 62
     72
 10
4.91417
 20
3.05464
 30
0.0
 11
4.84978
 21
2.74115
 31
0.0
  0
LINE
  8
0
 62
     72
 10
4.84978
 20
2.74115
 30
0.0
 11
5.42583
 21
2.74115
 31
0.0
  0
LINE
  8
0
 62
     72
 10
5.42583
 20
2.74115
 30
0.0
 11
5.3616
 21
3.05464
 31
0.0
  0
LINE
  8
0
 62
     72
 10
5.3616
 20
3.05464
 30
0.0
 11
5.55572
 21
3.13504
 31
0.0
  0
LINE
  8
0
 62
     72
 10
5.55572
 20
3.13504
 30
0.0
 11
5.35156
 21
3.62993
 31
0.0
  0
LINE
  8
0
 62
     72
 10
5.35156
 20
3.62993
 30
0.0
 11
5.24837
 21
3.59842
 31
0.0
  0
LINE
  8
0
 62
     72
 10
5.24837
 20
3.59842
 30
0.0
 11
5.13781
 21
3.58735
 31
0.0
  0
LINE
  8
0
 62
     72
 10
5.13781
 20
3.58735
 30
0.0
 11
5.02561
 21
3.59868
 31
0.0
  0
LINE
  8
0
 62
     72
 10
5.02561
 20
3.59868
 30
0.0
 11
4.92117
 21
3.63113
 31
0.0
  0
LINE
  8
0
 62
     72
 10
4.92117
 20
3.63113
 30
0.0
 11
4.82667
 21
3.68246
 31
0.0
  0
LINE
  8
0
 62
     72
 10
4.82667
 20
3.68246
 30
0.0
 11
4.74436
 21
3.75038
 31
0.0
  0
LINE
  8
0
 62
     72
 10
4.74436
 20
3.75038
 30
0.0
 11
4.67643
 21
3.83279
 31
0.0
  0
LINE
  8
0
 62
     72
 10
4.67643
 20
3.83279
 30
0.0
 11
4.62511
 21
3.92731
 31
0.0
  0
LINE
  8
0
 62
     72
 10
4.62511
 20
3.92731
 30
0.0
 11
4.59272
 21
4.03179
 31
0.0
  0
LINE
  8
0
 62
     72
 10
4.59272
 20
4.03179
 30
0.0
 11
4.58143
 21
4.14393
 31
0.0
  0
LINE
  8
0
 62
     72
 10
4.58143
 20
4.14393
 30
0.0
 11
4.59272
 21
4.25613
 31
0.0
  0
LINE
  8
0
 62
     72
 10
4.59272
 20
4.25613
 30
0.0
 11
4.62511
 21
4.36057
 31
0.0
  0
LINE
  8
0
 62
     72
 10
4.62511
 20
4.36057
 30
0.0
 11
4.67643
 21
4.45514
 31
0.0
  0
LINE
  8
0
 62
     72
 10
4.67643
 20
4.45514
 30
0.0
 11
4.74436
 21
4.53749
 31
0.0
  0
LINE
  8
0
 62
     72
 10
4.74436
 20
4.53749
 30
0.0
 11
4.82667
 21
4.60547
 31
0.0
  0
LINE
  8
0
 62
     72
 10
4.82667
 20
4.60547
 30
0.0
 11
4.92117
 21
4.65674
 31
0.0
  0
LINE
  8
0
 62
     72
 10
4.92117
 20
4.65674
 30
0.0
 11
5.02561
 21
4.68918
 31
0.0
  0
LINE
  8
0
 62
     72
 10
5.02561
 20
4.68918
 30
0.0
 11
5.13781
 21
4.70047
 31
0.0
  0
LINE
  8
0
 62
     72
 10
5.13781
 20
4.70047
 30
0.0
 11
5.24094
 21
4.69092
 31
0.0
  0
LINE
  8
0
 62
     72
 10
5.24094
 20
4.69092
 30
0.0
 11
5.33772
 21
4.66336
 31
0.0
  0
LINE
  8
0
 62
     72
 10
5.33772
 20
4.66336
 30
0.0
 11
5.33772
 21
4.66992
 31
0.0
  0
LINE
  8
0
 62
     72
 10
5.33772
 20
4.66992
 30
0.0
 11
5.55572
 21
5.15261
 31
0.0
  0
LINE
  8
0
 62
     72
 10
5.55572
 20
5.15261
 30
0.0
 11
5.3616
 21
5.23324
 31
0.0
  0
LINE
  8
0
 62
     72
 10
5.3616
 20
5.23324
 30
0.0
 11
5.42583
 21
5.54671
 31
0.0
  0
LINE
  8
0
 62
     72
 10
5.42583
 20
5.54671
 30
0.0
 11
4.84978
 21
5.54671
 31
0.0
  0
ENDSEC
  0
EOF
