  0
SECTION
  2
HEADER
  9
$ACADVER
  1
AC1009
  9
$EXTMIN
 10
0.0
 20
0.0
 30
0.0
  9
$EXTMAX
 10
1000.0
 20
1000.0
 30
0.0
  9
$FILLMODE
 70
 0
  9
$SPLFRAME
 70
 1
  0
ENDSEC
  0
SECTION
  2
TABLES
  0
TABLE
  2
LAYER
 70
1
  0
LAYER
  2
0
 70
     0
 62
     7
  6
CONTINUOUS
  0
ENDTAB
  0
ENDSEC
  0
SECTION
  2
ENTITIES
  0
LINE
  8
0
 62
     0
 10
3.47131
 20
4.71446
 30
0.0
 11
3.99431
 21
4.71446
 31
0.0
  0
LINE
  8
0
 62
     0
 10
3.99431
 20
4.71446
 30
0.0
 11
3.99431
 21
4.57688
 31
0.0
  0
LINE
  8
0
 62
     0
 10
3.99431
 20
4.57688
 30
0.0
 11
3.81896
 21
4.57688
 31
0.0
  0
LINE
  8
0
 62
     0
 10
3.81896
 20
4.57688
 30
0.0
 11
3.81896
 21
4.15761
 31
0.0
  0
LINE
  8
0
 62
     0
 10
3.81896
 20
4.15761
 30
0.0
 11
3.64686
 21
4.15761
 31
0.0
  0
LINE
  8
0
 62
     0
 10
3.64686
 20
4.15761
 30
0.0
 11
3.64686
 21
4.57688
 31
0.0
  0
LINE
  8
0
 62
     0
 10
3.64686
 20
4.57688
 30
0.0
 11
3.47131
 21
4.57688
 31
0.0
  0
LINE
  8
0
 62
     0
 10
3.47131
 20
4.57688
 30
0.0
 11
3.47131
 21
4.71446
 31
0.0
  0
LINE
  8
0
 62
     0
 10
3.99018
 20
4.35813
 30
0.0
 11
4.00569
 21
4.44228
 31
0.0
  0
LINE
  8
0
 62
     0
 10
4.00569
 20
4.44228
 30
0.0
 11
4.05246
 21
4.51025
 31
0.0
  0
LINE
  8
0
 62
     0
 10
4.05246
 20
4.51025
 30
0.0
 11
4.1256
 21
4.55518
 31
0.0
  0
LINE
  8
0
 62
     0
 10
4.1256
 20
4.55518
 30
0.0
 11
4.22065
 21
4.57015
 31
0.0
  0
LINE
  8
0
 62
     0
 10
4.22065
 20
4.57015
 30
0.0
 11
4.27746
 21
4.56575
 31
0.0
  0
LINE
  8
0
 62
     0
 10
4.27746
 20
4.56575
 30
0.0
 11
4.32693
 21
4.55257
 31
0.0
  0
LINE
  8
0
 62
     0
 10
4.32693
 20
4.55257
 30
0.0
 11
4.36903
 21
4.5306
 31
0.0
  0
LINE
  8
0
 62
     0
 10
4.36903
 20
4.5306
 30
0.0
 11
4.40381
 21
4.49983
 31
0.0
  0
LINE
  8
0
 62
     0
 10
4.40381
 20
4.49983
 30
0.0
 11
4.44103
 21
4.43668
 31
0.0
  0
LINE
  8
0
 62
     0
 10
4.44103
 20
4.43668
 30
0.0
 11
4.4535
 21
4.36051
 31
0.0
  0
LINE
  8
0
 62
     0
 10
4.4535
 20
4.36051
 30
0.0
 11
4.43804
 21
4.27582
 31
0.0
  0
LINE
  8
0
 62
     0
 10
4.43804
 20
4.27582
 30
0.0
 11
4.39165
 21
4.20796
 31
0.0
  0
LINE
  8
0
 62
     0
 10
4.39165
 20
4.20796
 30
0.0
 11
4.31814
 21
4.16336
 31
0.0
  0
LINE
  8
0
 62
     0
 10
4.31814
 20
4.16336
 30
0.0
 11
4.22108
 21
4.14849
 31
0.0
  0
LINE
  8
0
 62
     0
 10
4.22108
 20
4.14849
 30
0.0
 11
4.13308
 21
4.16086
 31
0.0
  0
LINE
  8
0
 62
     0
 10
4.13308
 20
4.16086
 30
0.0
 11
4.06375
 21
4.19797
 31
0.0
  0
LINE
  8
0
 62
     0
 10
4.06375
 20
4.19797
 30
0.0
 11
4.03153
 21
4.23085
 31
0.0
  0
LINE
  8
0
 62
     0
 10
4.03153
 20
4.23085
 30
0.0
 11
4.00857
 21
4.2685
 31
0.0
  0
LINE
  8
0
 62
     0
 10
4.00857
 20
4.2685
 30
0.0
 11
3.99474
 21
4.31093
 31
0.0
  0
LINE
  8
0
 62
     0
 10
3.99474
 20
4.31093
 30
0.0
 11
3.99018
 21
4.35813
 31
0.0
  0
LINE
  8
0
 62
     0
 10
4.14513
 20
4.35856
 30
0.0
 11
4.1505
 21
4.31158
 31
0.0
  0
LINE
  8
0
 62
     0
 10
4.1505
 20
4.31158
 30
0.0
 11
4.16683
 21
4.27869
 31
0.0
  0
LINE
  8
0
 62
     0
 10
4.16683
 20
4.27869
 30
0.0
 11
4.19146
 21
4.25933
 31
0.0
  0
LINE
  8
0
 62
     0
 10
4.19146
 20
4.25933
 30
0.0
 11
4.22174
 21
4.25288
 31
0.0
  0
LINE
  8
0
 62
     0
 10
4.22174
 20
4.25288
 30
0.0
 11
4.25211
 21
4.25922
 31
0.0
  0
LINE
  8
0
 62
     0
 10
4.25211
 20
4.25922
 30
0.0
 11
4.27664
 21
4.27826
 31
0.0
  0
LINE
  8
0
 62
     0
 10
4.27664
 20
4.27826
 30
0.0
 11
4.29275
 21
4.31153
 31
0.0
  0
LINE
  8
0
 62
     0
 10
4.29275
 20
4.31153
 30
0.0
 11
4.29812
 21
4.36008
 31
0.0
  0
LINE
  8
0
 62
     0
 10
4.29812
 20
4.36008
 30
0.0
 11
4.29264
 21
4.40571
 31
0.0
  0
LINE
  8
0
 62
     0
 10
4.29264
 20
4.40571
 30
0.0
 11
4.27642
 21
4.43799
 31
0.0
  0
LINE
  8
0
 62
     0
 10
4.27642
 20
4.43799
 30
0.0
 11
4.25233
 21
4.45736
 31
0.0
  0
LINE
  8
0
 62
     0
 10
4.25233
 20
4.45736
 30
0.0
 11
4.22304
 21
4.46382
 31
0.0
  0
LINE
  8
0
 62
     0
 10
4.22304
 20
4.46382
 30
0.0
 11
4.19211
 21
4.45731
 31
0.0
  0
LINE
  8
0
 62
     0
 10
4.19211
 20
4.45731
 30
0.0
 11
4.16704
 21
4.43778
 31
0.0
  0
LINE
  8
0
 62
     0
 10
4.16704
 20
4.43778
 30
0.0
 11
4.15056
 21
4.40494
 31
0.0
  0
LINE
  8
0
 62
     0
 10
4.15056
 20
4.40494
 30
0.0
 11
4.14513
 21
4.35856
 31
0.0
  0
LINE
  8
0
 62
     0
 10
4.52707
 20
4.56104
 30
0.0
 11
4.67117
 21
4.56104
 31
0.0
  0
LINE
  8
0
 62
     0
 10
4.67117
 20
4.56104
 30
0.0
 11
4.67117
 21
4.49528
 31
0.0
  0
LINE
  8
0
 62
     0
 10
4.67117
 20
4.49528
 30
0.0
 11
4.73628
 21
4.55279
 31
0.0
  0
LINE
  8
0
 62
     0
 10
4.73628
 20
4.55279
 30
0.0
 11
4.77306
 21
4.56581
 31
0.0
  0
LINE
  8
0
 62
     0
 10
4.77306
 20
4.56581
 30
0.0
 11
4.817
 21
4.57015
 31
0.0
  0
LINE
  8
0
 62
     0
 10
4.817
 20
4.57015
 30
0.0
 11
4.87403
 21
4.5606
 31
0.0
  0
LINE
  8
0
 62
     0
 10
4.87403
 20
4.5606
 30
0.0
 11
4.91726
 21
4.53196
 31
0.0
  0
LINE
  8
0
 62
     0
 10
4.91726
 20
4.53196
 30
0.0
 11
4.94461
 21
4.48335
 31
0.0
  0
LINE
  8
0
 62
     0
 10
4.94461
 20
4.48335
 30
0.0
 11
4.95372
 21
4.4139
 31
0.0
  0
LINE
  8
0
 62
     0
 10
4.95372
 20
4.4139
 30
0.0
 11
4.95372
 21
4.15761
 31
0.0
  0
LINE
  8
0
 62
     0
 10
4.95372
 20
4.15761
 30
0.0
 11
4.79833
 21
4.15761
 31
0.0
  0
LINE
  8
0
 62
     0
 10
4.79833
 20
4.15761
 30
0.0
 11
4.79833
 21
4.37939
 31
0.0
  0
LINE
  8
0
 62
     0
 10
4.79833
 20
4.37939
 30
0.0
 11
4.79476
 21
4.41178
 31
0.0
  0
LINE
  8
0
 62
     0
 10
4.79476
 20
4.41178
 30
0.0
 11
4.78424
 21
4.433
 31
0.0
  0
LINE
  8
0
 62
     0
 10
4.78424
 20
4.433
 30
0.0
 11
4.74474
 21
4.44883
 31
0.0
  0
LINE
  8
0
 62
     0
 10
4.74474
 20
4.44883
 30
0.0
 11
4.71935
 21
4.44353
 31
0.0
  0
LINE
  8
0
 62
     0
 10
4.71935
 20
4.44353
 30
0.0
 11
4.69917
 21
4.42757
 31
0.0
  0
LINE
  8
0
 62
     0
 10
4.69917
 20
4.42757
 30
0.0
 11
4.68608
 21
4.39789
 31
0.0
  0
LINE
  8
0
 62
     0
 10
4.68608
 20
4.39789
 30
0.0
 11
4.68181
 21
4.3514
 31
0.0
  0
LINE
  8
0
 62
     0
 10
4.68181
 20
4.3514
 30
0.0
 11
4.68181
 21
4.15761
 31
0.0
  0
LINE
  8
0
 62
     0
 10
4.68181
 20
4.15761
 30
0.0
 11
4.52707
 21
4.15761
 31
0.0
  0
LINE
  8
0
 62
     0
 10
4.52707
 20
4.15761
 30
0.0
 11
4.52707
 21
4.56104
 31
0.0
  0
LINE
  8
0
 62
     0
 10
5.0019
 20
4.56104
 30
0.0
 11
5.1651
 21
4.56104
 31
0.0
  0
LINE
  8
0
 62
     0
 10
5.1651
 20
4.56104
 30
0.0
 11
5.24843
 21
4.29237
 31
0.0
  0
LINE
  8
0
 62
     0
 10
5.24843
 20
4.29237
 30
0.0
 11
5.32547
 21
4.56104
 31
0.0
  0
LINE
  8
0
 62
     0
 10
5.32547
 20
4.56104
 30
0.0
 11
5.47781
 21
4.56104
 31
0.0
  0
LINE
  8
0
 62
     0
 10
5.47781
 20
4.56104
 30
0.0
 11
5.31787
 21
4.12983
 31
0.0
  0
LINE
  8
0
 62
     0
 10
5.31787
 20
4.12983
 30
0.0
 11
5.29021
 21
4.06825
 31
0.0
  0
LINE
  8
0
 62
     0
 10
5.29021
 20
4.06825
 30
0.0
 11
5.2621
 21
4.03043
 31
0.0
  0
LINE
  8
0
 62
     0
 10
5.2621
 20
4.03043
 30
0.0
 11
5.21115
 21
4.0031
 31
0.0
  0
LINE
  8
0
 62
     0
 10
5.21115
 20
4.0031
 30
0.0
 11
5.13926
 21
3.99397
 31
0.0
  0
LINE
  8
0
 62
     0
 10
5.13926
 20
3.99397
 30
0.0
 11
5.09668
 21
3.99625
 31
0.0
  0
LINE
  8
0
 62
     0
 10
5.09668
 20
3.99625
 30
0.0
 11
5.03597
 21
4.0031
 31
0.0
  0
LINE
  8
0
 62
     0
 10
5.03597
 20
4.0031
 30
0.0
 11
5.02382
 21
4.11094
 31
0.0
  0
LINE
  8
0
 62
     0
 10
5.02382
 20
4.11094
 30
0.0
 11
5.09825
 21
4.10032
 31
0.0
  0
LINE
  8
0
 62
     0
 10
5.09825
 20
4.10032
 30
0.0
 11
5.14253
 21
4.1129
 31
0.0
  0
LINE
  8
0
 62
     0
 10
5.14253
 20
4.1129
 30
0.0
 11
5.17117
 21
4.15761
 31
0.0
  0
LINE
  8
0
 62
     0
 10
5.17117
 20
4.15761
 30
0.0
 11
5.0019
 21
4.56104
 31
0.0
  0
LINE
  8
0
 62
     0
 10
5.79249
 20
4.71446
 30
0.0
 11
6.11453
 21
4.71446
 31
0.0
  0
LINE
  8
0
 62
     0
 10
6.11453
 20
4.71446
 30
0.0
 11
6.18565
 21
4.70449
 31
0.0
  0
LINE
  8
0
 62
     0
 10
6.18565
 20
4.70449
 30
0.0
 11
6.23822
 21
4.67453
 31
0.0
  0
LINE
  8
0
 62
     0
 10
6.23822
 20
4.67453
 30
0.0
 11
6.27056
 21
4.62989
 31
0.0
  0
LINE
  8
0
 62
     0
 10
6.27056
 20
4.62989
 30
0.0
 11
6.28142
 21
4.57579
 31
0.0
  0
LINE
  8
0
 62
     0
 10
6.28142
 20
4.57579
 30
0.0
 11
6.27365
 21
4.52989
 31
0.0
  0
LINE
  8
0
 62
     0
 10
6.27365
 20
4.52989
 30
0.0
 11
6.2506
 21
4.49115
 31
0.0
  0
LINE
  8
0
 62
     0
 10
6.2506
 20
4.49115
 30
0.0
 11
6.22521
 21
4.47
 31
0.0
  0
LINE
  8
0
 62
     0
 10
6.22521
 20
4.47
 30
0.0
 11
6.19049
 21
4.45383
 31
0.0
  0
LINE
  8
0
 62
     0
 10
6.19049
 20
4.45383
 30
0.0
 11
6.24257
 21
4.43431
 31
0.0
  0
LINE
  8
0
 62
     0
 10
6.24257
 20
4.43431
 30
0.0
 11
6.27881
 21
4.40435
 31
0.0
  0
LINE
  8
0
 62
     0
 10
6.27881
 20
4.40435
 30
0.0
 11
6.30007
 21
4.36469
 31
0.0
  0
LINE
  8
0
 62
     0
 10
6.30007
 20
4.36469
 30
0.0
 11
6.30724
 21
4.31603
 31
0.0
  0
LINE
  8
0
 62
     0
 10
6.30724
 20
4.31603
 30
0.0
 11
6.30219
 21
4.27485
 31
0.0
  0
LINE
  8
0
 62
     0
 10
6.30219
 20
4.27485
 30
0.0
 11
6.28706
 21
4.23812
 31
0.0
  0
LINE
  8
0
 62
     0
 10
6.28706
 20
4.23812
 30
0.0
 11
6.26313
 21
4.20719
 31
0.0
  0
LINE
  8
0
 62
     0
 10
6.26313
 20
4.20719
 30
0.0
 11
6.23193
 21
4.18343
 31
0.0
  0
LINE
  8
0
 62
     0
 10
6.23193
 20
4.18343
 30
0.0
 11
6.20469
 21
4.17258
 31
0.0
  0
LINE
  8
0
 62
     0
 10
6.20469
 20
4.17258
 30
0.0
 11
6.16661
 21
4.16521
 31
0.0
  0
LINE
  8
0
 62
     0
 10
6.16661
 20
4.16521
 30
0.0
 11
6.11822
 21
4.1595
 31
0.0
  0
LINE
  8
0
 62
     0
 10
6.11822
 20
4.1595
 30
0.0
 11
6.08957
 21
4.15761
 31
0.0
  0
LINE
  8
0
 62
     0
 10
6.08957
 20
4.15761
 30
0.0
 11
5.79249
 21
4.15761
 31
0.0
  0
LINE
  8
0
 62
     0
 10
5.79249
 20
4.15761
 30
0.0
 11
5.79249
 21
4.71446
 31
0.0
  0
LINE
  8
0
 62
     0
 10
5.9661
 20
4.49593
 30
0.0
 11
6.04096
 21
4.49593
 31
0.0
  0
LINE
  8
0
 62
     0
 10
6.04096
 20
4.49593
 30
0.0
 11
6.07497
 21
4.4994
 31
0.0
  0
LINE
  8
0
 62
     0
 10
6.07497
 20
4.4994
 30
0.0
 11
6.09694
 21
4.50982
 31
0.0
  0
LINE
  8
0
 62
     0
 10
6.09694
 20
4.50982
 30
0.0
 11
6.10878
 21
4.52681
 31
0.0
  0
LINE
  8
0
 62
     0
 10
6.10878
 20
4.52681
 30
0.0
 11
6.11279
 21
4.54997
 31
0.0
  0
LINE
  8
0
 62
     0
 10
6.11279
 20
4.54997
 30
0.0
 11
6.09694
 21
4.58794
 31
0.0
  0
LINE
  8
0
 62
     0
 10
6.09694
 20
4.58794
 30
0.0
 11
6.07525
 21
4.59819
 31
0.0
  0
LINE
  8
0
 62
     0
 10
6.07525
 20
4.59819
 30
0.0
 11
6.04204
 21
4.60161
 31
0.0
  0
LINE
  8
0
 62
     0
 10
6.04204
 20
4.60161
 30
0.0
 11
5.9661
 21
4.60161
 31
0.0
  0
LINE
  8
0
 62
     0
 10
5.9661
 20
4.60161
 30
0.0
 11
5.9661
 21
4.49593
 31
0.0
  0
LINE
  8
0
 62
     0
 10
5.9661
 20
4.27718
 30
0.0
 11
6.05376
 21
4.27718
 31
0.0
  0
LINE
  8
0
 62
     0
 10
6.05376
 20
4.27718
 30
0.0
 11
6.09164
 21
4.28114
 31
0.0
  0
LINE
  8
0
 62
     0
 10
6.09164
 20
4.28114
 30
0.0
 11
6.11649
 21
4.29303
 31
0.0
  0
LINE
  8
0
 62
     0
 10
6.11649
 20
4.29303
 30
0.0
 11
6.13015
 21
4.31153
 31
0.0
  0
LINE
  8
0
 62
     0
 10
6.13015
 20
4.31153
 30
0.0
 11
6.13471
 21
4.33535
 31
0.0
  0
LINE
  8
0
 62
     0
 10
6.13471
 20
4.33535
 30
0.0
 11
6.13015
 21
4.35764
 31
0.0
  0
LINE
  8
0
 62
     0
 10
6.13015
 20
4.35764
 30
0.0
 11
6.11669
 21
4.37506
 31
0.0
  0
LINE
  8
0
 62
     0
 10
6.11669
 20
4.37506
 30
0.0
 11
6.09185
 21
4.38628
 31
0.0
  0
LINE
  8
0
 62
     0
 10
6.09185
 20
4.38628
 30
0.0
 11
6.05354
 21
4.39003
 31
0.0
  0
LINE
  8
0
 62
     0
 10
6.05354
 20
4.39003
 30
0.0
 11
5.9661
 21
4.39003
 31
0.0
  0
LINE
  8
0
 62
     0
 10
5.9661
 20
4.39003
 30
0.0
 11
5.9661
 21
4.27718
 31
0.0
  0
LINE
  8
0
 62
     0
 10
6.8131
 20
4.15761
 30
0.0
 11
6.66878
 21
4.15761
 31
0.0
  0
LINE
  8
0
 62
     0
 10
6.66878
 20
4.15761
 30
0.0
 11
6.66878
 21
4.22293
 31
0.0
  0
LINE
  8
0
 62
     0
 10
6.66878
 20
4.22293
 30
0.0
 11
6.60346
 21
4.16564
 31
0.0
  0
LINE
  8
0
 62
     0
 10
6.60346
 20
4.16564
 30
0.0
 11
6.56689
 21
4.15283
 31
0.0
  0
LINE
  8
0
 62
     0
 10
6.56689
 20
4.15283
 30
0.0
 11
6.52294
 21
4.14849
 31
0.0
  0
LINE
  8
0
 62
     0
 10
6.52294
 20
4.14849
 30
0.0
 11
6.46599
 21
4.15804
 31
0.0
  0
LINE
  8
0
 62
     0
 10
6.46599
 20
4.15804
 30
0.0
 11
6.42269
 21
4.18668
 31
0.0
  0
LINE
  8
0
 62
     0
 10
6.42269
 20
4.18668
 30
0.0
 11
6.39546
 21
4.23519
 31
0.0
  0
LINE
  8
0
 62
     0
 10
6.39546
 20
4.23519
 30
0.0
 11
6.38644
 21
4.30431
 31
0.0
  0
LINE
  8
0
 62
     0
 10
6.38644
 20
4.30431
 30
0.0
 11
6.38644
 21
4.56104
 31
0.0
  0
LINE
  8
0
 62
     0
 10
6.38644
 20
4.56104
 30
0.0
 11
6.54183
 21
4.56104
 31
0.0
  0
LINE
  8
0
 62
     0
 10
6.54183
 20
4.56104
 30
0.0
 11
6.54183
 21
4.33925
 31
0.0
  0
LINE
  8
0
 62
     0
 10
6.54183
 20
4.33925
 30
0.0
 11
6.54531
 21
4.30675
 31
0.0
  0
LINE
  8
0
 62
     0
 10
6.54531
 20
4.30675
 30
0.0
 11
6.55593
 21
4.28521
 31
0.0
  0
LINE
  8
0
 62
     0
 10
6.55593
 20
4.28521
 30
0.0
 11
6.59543
 21
4.26937
 31
0.0
  0
LINE
  8
0
 62
     0
 10
6.59543
 20
4.26937
 30
0.0
 11
6.62061
 21
4.27468
 31
0.0
  0
LINE
  8
0
 62
     0
 10
6.62061
 20
4.27468
 30
0.0
 11
6.64079
 21
4.29064
 31
0.0
  0
LINE
  8
0
 62
     0
 10
6.64079
 20
4.29064
 30
0.0
 11
6.65397
 21
4.32031
 31
0.0
  0
LINE
  8
0
 62
     0
 10
6.65397
 20
4.32031
 30
0.0
 11
6.65836
 21
4.36681
 31
0.0
  0
LINE
  8
0
 62
     0
 10
6.65836
 20
4.36681
 30
0.0
 11
6.65836
 21
4.56104
 31
0.0
  0
LINE
  8
0
 62
     0
 10
6.65836
 20
4.56104
 30
0.0
 11
6.8131
 21
4.56104
 31
0.0
  0
LINE
  8
0
 62
     0
 10
6.8131
 20
4.56104
 30
0.0
 11
6.8131
 21
4.15761
 31
0.0
  0
LINE
  8
0
 62
     0
 10
6.88015
 20
4.26937
 30
0.0
 11
7.03358
 21
4.28369
 31
0.0
  0
LINE
  8
0
 62
     0
 10
7.03358
 20
4.28369
 30
0.0
 11
7.06028
 21
4.24463
 31
0.0
  0
LINE
  8
0
 62
     0
 10
7.06028
 20
4.24463
 30
0.0
 11
7.10585
 21
4.23292
 31
0.0
  0
LINE
  8
0
 62
     0
 10
7.10585
 20
4.23292
 30
0.0
 11
7.15403
 21
4.24615
 31
0.0
  0
LINE
  8
0
 62
     0
 10
7.15403
 20
4.24615
 30
0.0
 11
7.16726
 21
4.27089
 31
0.0
  0
LINE
  8
0
 62
     0
 10
7.16726
 20
4.27089
 30
0.0
 11
7.1499
 21
4.29671
 31
0.0
  0
LINE
  8
0
 62
     0
 10
7.1499
 20
4.29671
 30
0.0
 11
7.12696
 21
4.30382
 31
0.0
  0
LINE
  8
0
 62
     0
 10
7.12696
 20
4.30382
 30
0.0
 11
7.0835
 21
4.31256
 31
0.0
  0
LINE
  8
0
 62
     0
 10
7.0835
 20
4.31256
 30
0.0
 11
7.01519
 21
4.32611
 31
0.0
  0
LINE
  8
0
 62
     0
 10
7.01519
 20
4.32611
 30
0.0
 11
6.97151
 21
4.3386
 31
0.0
  0
LINE
  8
0
 62
     0
 10
6.97151
 20
4.3386
 30
0.0
 11
6.91878
 21
4.37896
 31
0.0
  0
LINE
  8
0
 62
     0
 10
6.91878
 20
4.37896
 30
0.0
 11
6.90267
 21
4.40956
 31
0.0
  0
LINE
  8
0
 62
     0
 10
6.90267
 20
4.40956
 30
0.0
 11
6.89729
 21
4.44407
 31
0.0
  0
LINE
  8
0
 62
     0
 10
6.89729
 20
4.44407
 30
0.0
 11
6.90306
 21
4.48107
 31
0.0
  0
LINE
  8
0
 62
     0
 10
6.90306
 20
4.48107
 30
0.0
 11
6.92051
 21
4.51264
 31
0.0
  0
LINE
  8
0
 62
     0
 10
6.92051
 20
4.51264
 30
0.0
 11
6.94803
 21
4.53787
 31
0.0
  0
LINE
  8
0
 62
     0
 10
6.94803
 20
4.53787
 30
0.0
 11
6.98432
 21
4.55583
 31
0.0
  0
LINE
  8
0
 62
     0
 10
6.98432
 20
4.55583
 30
0.0
 11
7.03179
 21
4.56657
 31
0.0
  0
LINE
  8
0
 62
     0
 10
7.03179
 20
4.56657
 30
0.0
 11
7.09326
 21
4.57015
 31
0.0
  0
LINE
  8
0
 62
     0
 10
7.09326
 20
4.57015
 30
0.0
 11
7.15597
 21
4.56739
 31
0.0
  0
LINE
  8
0
 62
     0
 10
7.15597
 20
4.56739
 30
0.0
 11
7.19982
 21
4.55908
 31
0.0
  0
LINE
  8
0
 62
     0
 10
7.19982
 20
4.55908
 30
0.0
 11
7.25711
 21
4.52479
 31
0.0
  0
LINE
  8
0
 62
     0
 10
7.25711
 20
4.52479
 30
0.0
 11
7.29531
 21
4.46229
 31
0.0
  0
LINE
  8
0
 62
     0
 10
7.29531
 20
4.46229
 30
0.0
 11
7.14882
 21
4.44775
 31
0.0
  0
LINE
  8
0
 62
     0
 10
7.14882
 20
4.44775
 30
0.0
 11
7.12972
 21
4.47618
 31
0.0
  0
LINE
  8
0
 62
     0
 10
7.12972
 20
4.47618
 30
0.0
 11
7.08567
 21
4.48833
 31
0.0
  0
LINE
  8
0
 62
     0
 10
7.08567
 20
4.48833
 30
0.0
 11
7.04747
 21
4.479
 31
0.0
  0
LINE
  8
0
 62
     0
 10
7.04747
 20
4.479
 30
0.0
 11
7.03554
 21
4.45643
 31
0.0
  0
LINE
  8
0
 62
     0
 10
7.03554
 20
4.45643
 30
0.0
 11
7.05072
 21
4.43408
 31
0.0
  0
LINE
  8
0
 62
     0
 10
7.05072
 20
4.43408
 30
0.0
 11
7.07482
 21
4.42686
 31
0.0
  0
LINE
  8
0
 62
     0
 10
7.07482
 20
4.42686
 30
0.0
 11
7.11692
 21
4.42042
 31
0.0
  0
LINE
  8
0
 62
     0
 10
7.11692
 20
4.42042
 30
0.0
 11
7.18403
 21
4.41
 31
0.0
  0
LINE
  8
0
 62
     0
 10
7.18403
 20
4.41
 30
0.0
 11
7.2315
 21
4.39611
 31
0.0
  0
LINE
  8
0
 62
     0
 10
7.2315
 20
4.39611
 30
0.0
 11
7.2646
 21
4.37717
 31
0.0
  0
LINE
  8
0
 62
     0
 10
7.2646
 20
4.37717
 30
0.0
 11
7.28901
 21
4.35161
 31
0.0
  0
LINE
  8
0
 62
     0
 10
7.28901
 20
4.35161
 30
0.0
 11
7.30897
 21
4.28825
 31
0.0
  0
LINE
  8
0
 62
     0
 10
7.30897
 20
4.28825
 30
0.0
 11
7.28792
 21
4.22032
 31
0.0
  0
LINE
  8
0
 62
     0
 10
7.28792
 20
4.22032
 30
0.0
 11
7.26074
 21
4.19065
 31
0.0
  0
LINE
  8
0
 62
     0
 10
7.26074
 20
4.19065
 30
0.0
 11
7.22151
 21
4.16758
 31
0.0
  0
LINE
  8
0
 62
     0
 10
7.22151
 20
4.16758
 30
0.0
 11
7.16786
 21
4.15294
 31
0.0
  0
LINE
  8
0
 62
     0
 10
7.16786
 20
4.15294
 30
0.0
 11
7.09782
 21
4.14806
 31
0.0
  0
LINE
  8
0
 62
     0
 10
7.09782
 20
4.14806
 30
0.0
 11
7.00319
 21
4.15593
 31
0.0
  0
LINE
  8
0
 62
     0
 10
7.00319
 20
4.15593
 30
0.0
 11
6.94049
 21
4.17953
 31
0.0
  0
LINE
  8
0
 62
     0
 10
6.94049
 20
4.17953
 30
0.0
 11
6.90192
 21
4.21783
 31
0.0
  0
LINE
  8
0
 62
     0
 10
6.90192
 20
4.21783
 30
0.0
 11
6.88015
 21
4.26937
 31
0.0
  0
LINE
  8
0
 62
     0
 10
7.83089
 20
4.32101
 30
0.0
 11
7.521
 21
4.32101
 31
0.0
  0
LINE
  8
0
 62
     0
 10
7.521
 20
4.32101
 30
0.0
 11
7.528
 21
4.28847
 31
0.0
  0
LINE
  8
0
 62
     0
 10
7.528
 20
4.28847
 30
0.0
 11
7.54096
 21
4.26546
 31
0.0
  0
LINE
  8
0
 62
     0
 10
7.54096
 20
4.26546
 30
0.0
 11
7.56683
 21
4.24576
 31
0.0
  0
LINE
  8
0
 62
     0
 10
7.56683
 20
4.24576
 30
0.0
 11
7.59956
 21
4.23921
 31
0.0
  0
LINE
  8
0
 62
     0
 10
7.59956
 20
4.23921
 30
0.0
 11
7.64274
 21
4.25071
 31
0.0
  0
LINE
  8
0
 62
     0
 10
7.64274
 20
4.25071
 30
0.0
 11
7.66986
 21
4.2761
 31
0.0
  0
LINE
  8
0
 62
     0
 10
7.66986
 20
4.2761
 30
0.0
 11
7.822
 21
4.26199
 31
0.0
  0
LINE
  8
0
 62
     0
 10
7.822
 20
4.26199
 30
0.0
 11
7.78336
 21
4.20979
 31
0.0
  0
LINE
  8
0
 62
     0
 10
7.78336
 20
4.20979
 30
0.0
 11
7.73757
 21
4.17475
 31
0.0
  0
LINE
  8
0
 62
     0
 10
7.73757
 20
4.17475
 30
0.0
 11
7.67751
 21
4.15511
 31
0.0
  0
LINE
  8
0
 62
     0
 10
7.67751
 20
4.15511
 30
0.0
 11
7.59608
 21
4.14849
 31
0.0
  0
LINE
  8
0
 62
     0
 10
7.59608
 20
4.14849
 30
0.0
 11
7.52447
 21
4.15419
 31
0.0
  0
LINE
  8
0
 62
     0
 10
7.52447
 20
4.15419
 30
0.0
 11
7.47
 21
4.17106
 31
0.0
  0
LINE
  8
0
 62
     0
 10
7.47
 20
4.17106
 30
0.0
 11
7.4279
 21
4.20031
 31
0.0
  0
LINE
  8
0
 62
     0
 10
7.4279
 20
4.20031
 30
0.0
 11
7.39382
 21
4.24289
 31
0.0
  0
LINE
  8
0
 62
     0
 10
7.39382
 20
4.24289
 30
0.0
 11
7.37115
 21
4.29644
 31
0.0
  0
LINE
  8
0
 62
     0
 10
7.37115
 20
4.29644
 30
0.0
 11
7.36367
 21
4.35856
 31
0.0
  0
LINE
  8
0
 62
     0
 10
7.36367
 20
4.35856
 30
0.0
 11
7.37879
 21
4.44412
 31
0.0
  0
LINE
  8
0
 62
     0
 10
7.37879
 20
4.44412
 30
0.0
 11
7.42421
 21
4.51156
 31
0.0
  0
LINE
  8
0
 62
     0
 10
7.42421
 20
4.51156
 30
0.0
 11
7.49631
 21
4.5555
 31
0.0
  0
LINE
  8
0
 62
     0
 10
7.49631
 20
4.5555
 30
0.0
 11
7.59153
 21
4.57015
 31
0.0
  0
LINE
  8
0
 62
     0
 10
7.59153
 20
4.57015
 30
0.0
 11
7.669
 21
4.56358
 31
0.0
  0
LINE
  8
0
 62
     0
 10
7.669
 20
4.56358
 30
0.0
 11
7.72825
 21
4.54389
 31
0.0
  0
LINE
  8
0
 62
     0
 10
7.72825
 20
4.54389
 30
0.0
 11
7.77235
 21
4.51178
 31
0.0
  0
LINE
  8
0
 62
     0
 10
7.77235
 20
4.51178
 30
0.0
 11
7.80464
 21
4.46793
 31
0.0
  0
LINE
  8
0
 62
     0
 10
7.80464
 20
4.46793
 30
0.0
 11
7.82428
 21
4.41069
 31
0.0
  0
LINE
  8
0
 62
     0
 10
7.82428
 20
4.41069
 30
0.0
 11
7.83089
 21
4.33838
 31
0.0
  0
LINE
  8
0
 62
     0
 10
7.83089
 20
4.33838
 30
0.0
 11
7.83089
 21
4.32101
 31
0.0
  0
LINE
  8
0
 62
     0
 10
7.67356
 20
4.39501
 30
0.0
 11
7.66525
 21
4.43338
 31
0.0
  0
LINE
  8
0
 62
     0
 10
7.66525
 20
4.43338
 30
0.0
 11
7.64947
 21
4.45904
 31
0.0
  0
LINE
  8
0
 62
     0
 10
7.64947
 20
4.45904
 30
0.0
 11
7.62685
 21
4.47368
 31
0.0
  0
LINE
  8
0
 62
     0
 10
7.62685
 20
4.47368
 30
0.0
 11
7.59804
 21
4.47857
 31
0.0
  0
LINE
  8
0
 62
     0
 10
7.59804
 20
4.47857
 30
0.0
 11
7.56483
 21
4.47125
 31
0.0
  0
LINE
  8
0
 62
     0
 10
7.56483
 20
4.47125
 30
0.0
 11
7.53922
 21
4.44928
 31
0.0
  0
LINE
  8
0
 62
     0
 10
7.53922
 20
4.44928
 30
0.0
 11
7.52761
 21
4.4266
 31
0.0
  0
LINE
  8
0
 62
     0
 10
7.52761
 20
4.4266
 30
0.0
 11
7.52121
 21
4.39501
 31
0.0
  0
LINE
  8
0
 62
     0
 10
7.52121
 20
4.39501
 30
0.0
 11
7.67356
 21
4.39501
 31
0.0
  0
LINE
  8
0
 62
     0
 10
7.90403
 20
4.56104
 30
0.0
 11
8.04878
 21
4.56104
 31
0.0
  0
LINE
  8
0
 62
     0
 10
8.04878
 20
4.56104
 30
0.0
 11
8.04878
 21
4.49485
 31
0.0
  0
LINE
  8
0
 62
     0
 10
8.04878
 20
4.49485
 30
0.0
 11
8.06993
 21
4.53108
 31
0.0
  0
LINE
  8
0
 62
     0
 10
8.06993
 20
4.53108
 30
0.0
 11
8.09174
 21
4.55388
 31
0.0
  0
LINE
  8
0
 62
     0
 10
8.09174
 20
4.55388
 30
0.0
 11
8.14686
 21
4.57015
 31
0.0
  0
LINE
  8
0
 62
     0
 10
8.14686
 20
4.57015
 30
0.0
 11
8.18251
 21
4.56483
 31
0.0
  0
LINE
  8
0
 62
     0
 10
8.18251
 20
4.56483
 30
0.0
 11
8.22151
 21
4.54889
 31
0.0
  0
LINE
  8
0
 62
     0
 10
8.22151
 20
4.54889
 30
0.0
 11
8.17378
 21
4.43864
 31
0.0
  0
LINE
  8
0
 62
     0
 10
8.17378
 20
4.43864
 30
0.0
 11
8.13038
 21
4.45014
 31
0.0
  0
LINE
  8
0
 62
     0
 10
8.13038
 20
4.45014
 30
0.0
 11
8.10335
 21
4.44385
 31
0.0
  0
LINE
  8
0
 62
     0
 10
8.10335
 20
4.44385
 30
0.0
 11
8.08328
 21
4.42497
 31
0.0
  0
LINE
  8
0
 62
     0
 10
8.08328
 20
4.42497
 30
0.0
 11
8.06532
 21
4.37424
 31
0.0
  0
LINE
  8
0
 62
     0
 10
8.06532
 20
4.37424
 30
0.0
 11
8.0594
 21
4.29281
 31
0.0
  0
LINE
  8
0
 62
     0
 10
8.0594
 20
4.29281
 30
0.0
 11
8.0594
 21
4.15761
 31
0.0
  0
LINE
  8
0
 62
     0
 10
8.0594
 20
4.15761
 30
0.0
 11
7.90403
 21
4.15761
 31
0.0
  0
LINE
  8
0
 62
     0
 10
7.90403
 20
4.15761
 30
0.0
 11
7.90403
 21
4.56104
 31
0.0
  0
LINE
  8
0
 62
     0
 10
3.54269
 20
3.93886
 30
0.0
 11
3.54269
 21
3.86203
 31
0.0
  0
LINE
  8
0
 62
     0
 10
3.54269
 20
3.86203
 30
0.0
 11
3.58524
 21
3.86203
 31
0.0
  0
LINE
  8
0
 62
     0
 10
3.58524
 20
3.86203
 30
0.0
 11
3.58524
 21
3.80561
 31
0.0
  0
LINE
  8
0
 62
     0
 10
3.58524
 20
3.80561
 30
0.0
 11
3.54269
 21
3.80561
 31
0.0
  0
LINE
  8
0
 62
     0
 10
3.54269
 20
3.80561
 30
0.0
 11
3.54269
 21
3.73421
 31
0.0
  0
LINE
  8
0
 62
     0
 10
3.54269
 20
3.73421
 30
0.0
 11
3.54531
 21
3.71707
 31
0.0
  0
LINE
  8
0
 62
     0
 10
3.54531
 20
3.71707
 30
0.0
 11
3.55854
 21
3.71056
 31
0.0
  0
LINE
  8
0
 62
     0
 10
3.55854
 20
3.71056
 30
0.0
 11
3.58242
 21
3.71556
 31
0.0
  0
LINE
  8
0
 62
     0
 10
3.58242
 20
3.71556
 30
0.0
 11
3.58806
 21
3.66217
 31
0.0
  0
LINE
  8
0
 62
     0
 10
3.58806
 20
3.66217
 30
0.0
 11
3.53467
 21
3.65587
 31
0.0
  0
LINE
  8
0
 62
     0
 10
3.53467
 20
3.65587
 30
0.0
 11
3.49214
 21
3.66325
 31
0.0
  0
LINE
  8
0
 62
     0
 10
3.49214
 20
3.66325
 30
0.0
 11
3.47174
 21
3.6856
 31
0.0
  0
LINE
  8
0
 62
     0
 10
3.47174
 20
3.6856
 30
0.0
 11
3.46522
 21
3.73465
 31
0.0
  0
LINE
  8
0
 62
     0
 10
3.46522
 20
3.73465
 30
0.0
 11
3.46522
 21
3.80561
 31
0.0
  0
LINE
  8
0
 62
     0
 10
3.46522
 20
3.80561
 30
0.0
 11
3.43679
 21
3.80561
 31
0.0
  0
LINE
  8
0
 62
     0
 10
3.43679
 20
3.80561
 30
0.0
 11
3.43679
 21
3.86203
 31
0.0
  0
LINE
  8
0
 62
     0
 10
3.43679
 20
3.86203
 30
0.0
 11
3.46522
 21
3.86203
 31
0.0
  0
LINE
  8
0
 62
     0
 10
3.46522
 20
3.86203
 30
0.0
 11
3.46522
 21
3.89914
 31
0.0
  0
LINE
  8
0
 62
     0
 10
3.46522
 20
3.89914
 30
0.0
 11
3.54269
 21
3.93886
 31
0.0
  0
LINE
  8
0
 62
     0
 10
3.62299
 20
3.93886
 30
0.0
 11
3.70111
 21
3.93886
 31
0.0
  0
LINE
  8
0
 62
     0
 10
3.70111
 20
3.93886
 30
0.0
 11
3.70111
 21
3.84229
 31
0.0
  0
LINE
  8
0
 62
     0
 10
3.70111
 20
3.84229
 30
0.0
 11
3.72738
 21
3.86051
 31
0.0
  0
LINE
  8
0
 62
     0
 10
3.72738
 20
3.86051
 30
0.0
 11
3.75993
 21
3.8666
 31
0.0
  0
LINE
  8
0
 62
     0
 10
3.75993
 20
3.8666
 30
0.0
 11
3.79357
 21
3.85997
 31
0.0
  0
LINE
  8
0
 62
     0
 10
3.79357
 20
3.85997
 30
0.0
 11
3.8209
 21
3.84011
 31
0.0
  0
LINE
  8
0
 62
     0
 10
3.8209
 20
3.84011
 30
0.0
 11
3.83897
 21
3.80789
 31
0.0
  0
LINE
  8
0
 62
     0
 10
3.83897
 20
3.80789
 30
0.0
 11
3.845
 21
3.76417
 31
0.0
  0
LINE
  8
0
 62
     0
 10
3.845
 20
3.76417
 30
0.0
 11
3.83393
 21
3.706
 31
0.0
  0
LINE
  8
0
 62
     0
 10
3.83393
 20
3.706
 30
0.0
 11
3.80354
 21
3.66824
 31
0.0
  0
LINE
  8
0
 62
     0
 10
3.80354
 20
3.66824
 30
0.0
 11
3.76036
 21
3.65587
 31
0.0
  0
LINE
  8
0
 62
     0
 10
3.76036
 20
3.65587
 30
0.0
 11
3.72325
 21
3.66456
 31
0.0
  0
LINE
  8
0
 62
     0
 10
3.72325
 20
3.66456
 30
0.0
 11
3.69547
 21
3.69015
 31
0.0
  0
LINE
  8
0
 62
     0
 10
3.69547
 20
3.69015
 30
0.0
 11
3.69547
 21
3.66043
 31
0.0
  0
LINE
  8
0
 62
     0
 10
3.69547
 20
3.66043
 30
0.0
 11
3.62299
 21
3.66043
 31
0.0
  0
LINE
  8
0
 62
     0
 10
3.62299
 20
3.66043
 30
0.0
 11
3.62299
 21
3.93886
 31
0.0
  0
LINE
  8
0
 62
     0
 10
3.70047
 20
3.76178
 30
0.0
 11
3.71024
 21
3.72401
 31
0.0
  0
LINE
  8
0
 62
     0
 10
3.71024
 20
3.72401
 30
0.0
 11
3.73519
 21
3.71251
 31
0.0
  0
LINE
  8
0
 62
     0
 10
3.73519
 20
3.71251
 30
0.0
 11
3.7584
 21
3.72401
 31
0.0
  0
LINE
  8
0
 62
     0
 10
3.7584
 20
3.72401
 30
0.0
 11
3.76774
 21
3.76264
 31
0.0
  0
LINE
  8
0
 62
     0
 10
3.76774
 20
3.76264
 30
0.0
 11
3.7584
 21
3.79758
 31
0.0
  0
LINE
  8
0
 62
     0
 10
3.7584
 20
3.79758
 30
0.0
 11
3.73628
 21
3.80886
 31
0.0
  0
LINE
  8
0
 62
     0
 10
3.73628
 20
3.80886
 30
0.0
 11
3.71044
 21
3.79715
 31
0.0
  0
LINE
  8
0
 62
     0
 10
3.71044
 20
3.79715
 30
0.0
 11
3.70047
 21
3.76178
 31
0.0
  0
LINE
  8
0
 62
     0
 10
4.09424
 20
3.66043
 30
0.0
 11
4.02197
 21
3.66043
 31
0.0
  0
LINE
  8
0
 62
     0
 10
4.02197
 20
3.66043
 30
0.0
 11
4.02197
 21
3.69319
 31
0.0
  0
LINE
  8
0
 62
     0
 10
4.02197
 20
3.69319
 30
0.0
 11
3.98942
 21
3.66433
 31
0.0
  0
LINE
  8
0
 62
     0
 10
3.98942
 20
3.66433
 30
0.0
 11
3.94906
 21
3.65587
 31
0.0
  0
LINE
  8
0
 62
     0
 10
3.94906
 20
3.65587
 30
0.0
 11
3.92057
 21
3.66064
 31
0.0
  0
LINE
  8
0
 62
     0
 10
3.92057
 20
3.66064
 30
0.0
 11
3.89893
 21
3.67497
 31
0.0
  0
LINE
  8
0
 62
     0
 10
3.89893
 20
3.67497
 30
0.0
 11
3.88536
 21
3.69922
 31
0.0
  0
LINE
  8
0
 62
     0
 10
3.88536
 20
3.69922
 30
0.0
 11
3.88092
 21
3.73378
 31
0.0
  0
LINE
  8
0
 62
     0
 10
3.88092
 20
3.73378
 30
0.0
 11
3.88092
 21
3.86203
 31
0.0
  0
LINE
  8
0
 62
     0
 10
3.88092
 20
3.86203
 30
0.0
 11
3.95861
 21
3.86203
 31
0.0
  0
LINE
  8
0
 62
     0
 10
3.95861
 20
3.86203
 30
0.0
 11
3.95861
 21
3.75114
 31
0.0
  0
LINE
  8
0
 62
     0
 10
3.95861
 20
3.75114
 30
0.0
 11
3.96556
 21
3.72424
 31
0.0
  0
LINE
  8
0
 62
     0
 10
3.96556
 20
3.72424
 30
0.0
 11
3.98529
 21
3.71619
 31
0.0
  0
LINE
  8
0
 62
     0
 10
3.98529
 20
3.71619
 30
0.0
 11
4.00808
 21
3.72683
 31
0.0
  0
LINE
  8
0
 62
     0
 10
4.00808
 20
3.72683
 30
0.0
 11
4.01699
 21
3.76503
 31
0.0
  0
LINE
  8
0
 62
     0
 10
4.01699
 20
3.76503
 30
0.0
 11
4.01699
 21
3.86203
 31
0.0
  0
LINE
  8
0
 62
     0
 10
4.01699
 20
3.86203
 30
0.0
 11
4.09424
 21
3.86203
 31
0.0
  0
LINE
  8
0
 62
     0
 10
4.09424
 20
3.86203
 30
0.0
 11
4.09424
 21
3.66043
 31
0.0
  0
LINE
  8
0
 62
     0
 10
4.12788
 20
3.71619
 30
0.0
 11
4.20449
 21
3.72358
 31
0.0
  0
LINE
  8
0
 62
     0
 10
4.20449
 20
3.72358
 30
0.0
 11
4.21772
 21
3.70383
 31
0.0
  0
LINE
  8
0
 62
     0
 10
4.21772
 20
3.70383
 30
0.0
 11
4.2405
 21
3.69797
 31
0.0
  0
LINE
  8
0
 62
     0
 10
4.2405
 20
3.69797
 30
0.0
 11
4.26481
 21
3.70469
 31
0.0
  0
LINE
  8
0
 62
     0
 10
4.26481
 20
3.70469
 30
0.0
 11
4.27132
 21
3.71707
 31
0.0
  0
LINE
  8
0
 62
     0
 10
4.27132
 20
3.71707
 30
0.0
 11
4.26264
 21
3.72987
 31
0.0
  0
LINE
  8
0
 62
     0
 10
4.26264
 20
3.72987
 30
0.0
 11
4.22944
 21
3.7379
 31
0.0
  0
LINE
  8
0
 62
     0
 10
4.22944
 20
3.7379
 30
0.0
 11
4.17344
 21
3.75092
 31
0.0
  0
LINE
  8
0
 62
     0
 10
4.17344
 20
3.75092
 30
0.0
 11
4.14697
 21
3.77111
 31
0.0
  0
LINE
  8
0
 62
     0
 10
4.14697
 20
3.77111
 30
0.0
 11
4.13633
 21
3.80365
 31
0.0
  0
LINE
  8
0
 62
     0
 10
4.13633
 20
3.80365
 30
0.0
 11
4.14785
 21
3.83794
 31
0.0
  0
LINE
  8
0
 62
     0
 10
4.14785
 20
3.83794
 30
0.0
 11
4.17974
 21
3.85943
 31
0.0
  0
LINE
  8
0
 62
     0
 10
4.17974
 20
3.85943
 30
0.0
 11
4.23443
 21
3.8666
 31
0.0
  0
LINE
  8
0
 62
     0
 10
4.23443
 20
3.8666
 30
0.0
 11
4.2876
 21
3.86117
 31
0.0
  0
LINE
  8
0
 62
     0
 10
4.2876
 20
3.86117
 30
0.0
 11
4.31625
 21
3.84403
 31
0.0
  0
LINE
  8
0
 62
     0
 10
4.31625
 20
3.84403
 30
0.0
 11
4.33535
 21
3.81278
 31
0.0
  0
LINE
  8
0
 62
     0
 10
4.33535
 20
3.81278
 30
0.0
 11
4.26199
 21
3.80561
 31
0.0
  0
LINE
  8
0
 62
     0
 10
4.26199
 20
3.80561
 30
0.0
 11
4.25265
 21
3.81972
 31
0.0
  0
LINE
  8
0
 62
     0
 10
4.25265
 20
3.81972
 30
0.0
 11
4.23053
 21
3.82579
 31
0.0
  0
LINE
  8
0
 62
     0
 10
4.23053
 20
3.82579
 30
0.0
 11
4.21143
 21
3.82101
 31
0.0
  0
LINE
  8
0
 62
     0
 10
4.21143
 20
3.82101
 30
0.0
 11
4.20557
 21
3.80994
 31
0.0
  0
LINE
  8
0
 62
     0
 10
4.20557
 20
3.80994
 30
0.0
 11
4.21317
 21
3.79867
 31
0.0
  0
LINE
  8
0
 62
     0
 10
4.21317
 20
3.79867
 30
0.0
 11
4.24615
 21
3.79194
 31
0.0
  0
LINE
  8
0
 62
     0
 10
4.24615
 20
3.79194
 30
0.0
 11
4.30344
 21
3.77957
 31
0.0
  0
LINE
  8
0
 62
     0
 10
4.30344
 20
3.77957
 30
0.0
 11
4.33231
 21
3.75743
 31
0.0
  0
LINE
  8
0
 62
     0
 10
4.33231
 20
3.75743
 30
0.0
 11
4.34229
 21
3.72575
 31
0.0
  0
LINE
  8
0
 62
     0
 10
4.34229
 20
3.72575
 30
0.0
 11
4.33165
 21
3.69168
 31
0.0
  0
LINE
  8
0
 62
     0
 10
4.33165
 20
3.69168
 30
0.0
 11
4.29824
 21
3.66542
 31
0.0
  0
LINE
  8
0
 62
     0
 10
4.29824
 20
3.66542
 30
0.0
 11
4.2366
 21
3.65565
 31
0.0
  0
LINE
  8
0
 62
     0
 10
4.2366
 20
3.65565
 30
0.0
 11
4.18924
 21
3.65956
 31
0.0
  0
LINE
  8
0
 62
     0
 10
4.18924
 20
3.65956
 30
0.0
 11
4.15782
 21
3.67128
 31
0.0
  0
LINE
  8
0
 62
     0
 10
4.15782
 20
3.67128
 30
0.0
 11
4.13861
 21
3.69043
 31
0.0
  0
LINE
  8
0
 62
     0
 10
4.13861
 20
3.69043
 30
0.0
 11
4.12788
 21
3.71619
 31
0.0
  0
LINE
  8
0
 62
     0
 10
4.60303
 20
3.74203
 30
0.0
 11
4.44808
 21
3.74203
 31
0.0
  0
LINE
  8
0
 62
     0
 10
4.44808
 20
3.74203
 30
0.0
 11
4.45828
 21
3.71446
 31
0.0
  0
LINE
  8
0
 62
     0
 10
4.45828
 20
3.71446
 30
0.0
 11
4.48736
 21
3.70122
 31
0.0
  0
LINE
  8
0
 62
     0
 10
4.48736
 20
3.70122
 30
0.0
 11
4.50906
 21
3.70687
 31
0.0
  0
LINE
  8
0
 62
     0
 10
4.50906
 20
3.70687
 30
0.0
 11
4.52251
 21
3.71967
 31
0.0
  0
LINE
  8
0
 62
     0
 10
4.52251
 20
3.71967
 30
0.0
 11
4.59868
 21
3.71272
 31
0.0
  0
LINE
  8
0
 62
     0
 10
4.59868
 20
3.71272
 30
0.0
 11
4.55658
 21
3.66911
 31
0.0
  0
LINE
  8
0
 62
     0
 10
4.55658
 20
3.66911
 30
0.0
 11
4.52647
 21
3.65924
 31
0.0
  0
LINE
  8
0
 62
     0
 10
4.52647
 20
3.65924
 30
0.0
 11
4.48583
 21
3.65587
 31
0.0
  0
LINE
  8
0
 62
     0
 10
4.48583
 20
3.65587
 30
0.0
 11
4.44993
 21
3.65875
 31
0.0
  0
LINE
  8
0
 62
     0
 10
4.44993
 20
3.65875
 30
0.0
 11
4.42269
 21
3.66715
 31
0.0
  0
LINE
  8
0
 62
     0
 10
4.42269
 20
3.66715
 30
0.0
 11
4.3845
 21
3.70296
 31
0.0
  0
LINE
  8
0
 62
     0
 10
4.3845
 20
3.70296
 30
0.0
 11
4.36951
 21
3.7609
 31
0.0
  0
LINE
  8
0
 62
     0
 10
4.36951
 20
3.7609
 30
0.0
 11
4.37701
 21
3.80365
 31
0.0
  0
LINE
  8
0
 62
     0
 10
4.37701
 20
3.80365
 30
0.0
 11
4.39968
 21
3.83729
 31
0.0
  0
LINE
  8
0
 62
     0
 10
4.39968
 20
3.83729
 30
0.0
 11
4.43576
 21
3.85926
 31
0.0
  0
LINE
  8
0
 62
     0
 10
4.43576
 20
3.85926
 30
0.0
 11
4.48346
 21
3.8666
 31
0.0
  0
LINE
  8
0
 62
     0
 10
4.48346
 20
3.8666
 30
0.0
 11
4.52219
 21
3.86333
 31
0.0
  0
LINE
  8
0
 62
     0
 10
4.52219
 20
3.86333
 30
0.0
 11
4.55181
 21
3.85357
 31
0.0
  0
LINE
  8
0
 62
     0
 10
4.55181
 20
3.85357
 30
0.0
 11
4.59
 21
3.8156
 31
0.0
  0
LINE
  8
0
 62
     0
 10
4.59
 20
3.8156
 30
0.0
 11
4.59978
 21
3.78694
 31
0.0
  0
LINE
  8
0
 62
     0
 10
4.59978
 20
3.78694
 30
0.0
 11
4.60303
 21
3.75092
 31
0.0
  0
LINE
  8
0
 62
     0
 10
4.60303
 20
3.75092
 30
0.0
 11
4.60303
 21
3.74203
 31
0.0
  0
LINE
  8
0
 62
     0
 10
4.52447
 20
3.77914
 30
0.0
 11
4.51232
 21
3.81104
 31
0.0
  0
LINE
  8
0
 62
     0
 10
4.51232
 20
3.81104
 30
0.0
 11
4.48671
 21
3.82081
 31
0.0
  0
LINE
  8
0
 62
     0
 10
4.48671
 20
3.82081
 30
0.0
 11
4.45719
 21
3.80626
 31
0.0
  0
LINE
  8
0
 62
     0
 10
4.45719
 20
3.80626
 30
0.0
 11
4.44829
 21
3.77914
 31
0.0
  0
LINE
  8
0
 62
     0
 10
4.44829
 20
3.77914
 30
0.0
 11
4.52447
 21
3.77914
 31
0.0
  0
LINE
  8
0
 62
     0
 10
4.63971
 20
3.86203
 30
0.0
 11
4.71218
 21
3.86203
 31
0.0
  0
LINE
  8
0
 62
     0
 10
4.71218
 20
3.86203
 30
0.0
 11
4.71218
 21
3.82904
 31
0.0
  0
LINE
  8
0
 62
     0
 10
4.71218
 20
3.82904
 30
0.0
 11
4.73367
 21
3.85856
 31
0.0
  0
LINE
  8
0
 62
     0
 10
4.73367
 20
3.85856
 30
0.0
 11
4.76101
 21
3.8666
 31
0.0
  0
LINE
  8
0
 62
     0
 10
4.76101
 20
3.8666
 30
0.0
 11
4.79856
 21
3.85596
 31
0.0
  0
LINE
  8
0
 62
     0
 10
4.79856
 20
3.85596
 30
0.0
 11
4.77447
 21
3.80106
 31
0.0
  0
LINE
  8
0
 62
     0
 10
4.77447
 20
3.80106
 30
0.0
 11
4.75299
 21
3.80669
 31
0.0
  0
LINE
  8
0
 62
     0
 10
4.75299
 20
3.80669
 30
0.0
 11
4.72933
 21
3.79411
 31
0.0
  0
LINE
  8
0
 62
     0
 10
4.72933
 20
3.79411
 30
0.0
 11
4.72032
 21
3.76882
 31
0.0
  0
LINE
  8
0
 62
     0
 10
4.72032
 20
3.76882
 30
0.0
 11
4.71739
 21
3.72814
 31
0.0
  0
LINE
  8
0
 62
     0
 10
4.71739
 20
3.72814
 30
0.0
 11
4.71739
 21
3.66043
 31
0.0
  0
LINE
  8
0
 62
     0
 10
4.71739
 20
3.66043
 30
0.0
 11
4.63971
 21
3.66043
 31
0.0
  0
LINE
  8
0
 62
     0
 10
4.63971
 20
3.66043
 30
0.0
 11
4.63971
 21
3.86203
 31
0.0
  0
LINE
  8
0
 62
     0
 10
5.0084
 20
3.87853
 30
0.0
 11
4.98454
 21
3.72814
 31
0.0
  0
LINE
  8
0
 62
     0
 10
4.98454
 20
3.72814
 30
0.0
 11
4.98389
 21
3.72163
 31
0.0
  0
LINE
  8
0
 62
     0
 10
4.98389
 20
3.72163
 30
0.0
 11
4.98562
 21
3.71619
 31
0.0
  0
LINE
  8
0
 62
     0
 10
4.98562
 20
3.71619
 30
0.0
 11
4.99149
 21
3.71446
 31
0.0
  0
LINE
  8
0
 62
     0
 10
4.99149
 20
3.71446
 30
0.0
 11
5.01124
 21
3.72206
 31
0.0
  0
LINE
  8
0
 62
     0
 10
5.01124
 20
3.72206
 30
0.0
 11
5.03792
 21
3.75504
 31
0.0
  0
LINE
  8
0
 62
     0
 10
5.03792
 20
3.75504
 30
0.0
 11
5.04856
 21
3.80713
 31
0.0
  0
LINE
  8
0
 62
     0
 10
5.04856
 20
3.80713
 30
0.0
 11
5.04129
 21
3.852
 31
0.0
  0
LINE
  8
0
 62
     0
 10
5.04129
 20
3.852
 30
0.0
 11
5.01969
 21
3.88633
 31
0.0
  0
LINE
  8
0
 62
     0
 10
5.01969
 20
3.88633
 30
0.0
 11
4.98606
 21
3.90815
 31
0.0
  0
LINE
  8
0
 62
     0
 10
4.98606
 20
3.90815
 30
0.0
 11
4.94265
 21
3.91542
 31
0.0
  0
LINE
  8
0
 62
     0
 10
4.94265
 20
3.91542
 30
0.0
 11
4.87756
 21
3.89828
 31
0.0
  0
LINE
  8
0
 62
     0
 10
4.87756
 20
3.89828
 30
0.0
 11
4.85156
 21
3.87744
 31
0.0
  0
LINE
  8
0
 62
     0
 10
4.85156
 20
3.87744
 30
0.0
 11
4.83242
 21
3.84879
 31
0.0
  0
LINE
  8
0
 62
     0
 10
4.83242
 20
3.84879
 30
0.0
 11
4.81657
 21
3.77696
 31
0.0
  0
LINE
  8
0
 62
     0
 10
4.81657
 20
3.77696
 30
0.0
 11
4.82508
 21
3.72228
 31
0.0
  0
LINE
  8
0
 62
     0
 10
4.82508
 20
3.72228
 30
0.0
 11
4.85086
 21
3.68018
 31
0.0
  0
LINE
  8
0
 62
     0
 10
4.85086
 20
3.68018
 30
0.0
 11
4.8904
 21
3.65332
 31
0.0
  0
LINE
  8
0
 62
     0
 10
4.8904
 20
3.65332
 30
0.0
 11
4.94006
 21
3.64437
 31
0.0
  0
LINE
  8
0
 62
     0
 10
4.94006
 20
3.64437
 30
0.0
 11
4.99104
 21
3.65326
 31
0.0
  0
LINE
  8
0
 62
     0
 10
4.99104
 20
3.65326
 30
0.0
 11
5.03836
 21
3.67974
 31
0.0
  0
LINE
  8
0
 62
     0
 10
5.03836
 20
3.67974
 30
0.0
 11
5.07721
 21
3.67974
 31
0.0
  0
LINE
  8
0
 62
     0
 10
5.07721
 20
3.67974
 30
0.0
 11
5.04769
 21
3.65088
 31
0.0
  0
LINE
  8
0
 62
     0
 10
5.04769
 20
3.65088
 30
0.0
 11
4.99951
 21
3.62592
 31
0.0
  0
LINE
  8
0
 62
     0
 10
4.99951
 20
3.62592
 30
0.0
 11
4.94069
 21
3.61615
 31
0.0
  0
LINE
  8
0
 62
     0
 10
4.94069
 20
3.61615
 30
0.0
 11
4.89903
 21
3.62131
 31
0.0
  0
LINE
  8
0
 62
     0
 10
4.89903
 20
3.62131
 30
0.0
 11
4.86193
 21
3.63656
 31
0.0
  0
LINE
  8
0
 62
     0
 10
4.86193
 20
3.63656
 30
0.0
 11
4.83072
 21
3.66108
 31
0.0
  0
LINE
  8
0
 62
     0
 10
4.83072
 20
3.66108
 30
0.0
 11
4.80724
 21
3.69428
 31
0.0
  0
LINE
  8
0
 62
     0
 10
4.80724
 20
3.69428
 30
0.0
 11
4.78771
 21
3.77718
 31
0.0
  0
LINE
  8
0
 62
     0
 10
4.78771
 20
3.77718
 30
0.0
 11
4.79275
 21
3.82254
 31
0.0
  0
LINE
  8
0
 62
     0
 10
4.79275
 20
3.82254
 30
0.0
 11
4.80811
 21
3.86356
 31
0.0
  0
LINE
  8
0
 62
     0
 10
4.80811
 20
3.86356
 30
0.0
 11
4.83176
 21
3.89785
 31
0.0
  0
LINE
  8
0
 62
     0
 10
4.83176
 20
3.89785
 30
0.0
 11
4.86214
 21
3.92301
 31
0.0
  0
LINE
  8
0
 62
     0
 10
4.86214
 20
3.92301
 30
0.0
 11
4.89908
 21
3.93864
 31
0.0
  0
LINE
  8
0
 62
     0
 10
4.89908
 20
3.93864
 30
0.0
 11
4.94243
 21
3.94385
 31
0.0
  0
LINE
  8
0
 62
     0
 10
4.94243
 20
3.94385
 30
0.0
 11
4.99664
 21
3.93435
 31
0.0
  0
LINE
  8
0
 62
     0
 10
4.99664
 20
3.93435
 30
0.0
 11
5.03965
 21
3.90587
 31
0.0
  0
LINE
  8
0
 62
     0
 10
5.03965
 20
3.90587
 30
0.0
 11
5.06776
 21
3.86231
 31
0.0
  0
LINE
  8
0
 62
     0
 10
5.06776
 20
3.86231
 30
0.0
 11
5.07721
 21
3.80757
 31
0.0
  0
LINE
  8
0
 62
     0
 10
5.07721
 20
3.80757
 30
0.0
 11
5.06244
 21
3.74224
 31
0.0
  0
LINE
  8
0
 62
     0
 10
5.06244
 20
3.74224
 30
0.0
 11
5.01969
 21
3.69536
 31
0.0
  0
LINE
  8
0
 62
     0
 10
5.01969
 20
3.69536
 30
0.0
 11
4.97868
 21
3.68213
 31
0.0
  0
LINE
  8
0
 62
     0
 10
4.97868
 20
3.68213
 30
0.0
 11
4.96001
 21
3.68733
 31
0.0
  0
LINE
  8
0
 62
     0
 10
4.96001
 20
3.68733
 30
0.0
 11
4.94938
 21
3.70426
 31
0.0
  0
LINE
  8
0
 62
     0
 10
4.94938
 20
3.70426
 30
0.0
 11
4.92617
 21
3.6869
 31
0.0
  0
LINE
  8
0
 62
     0
 10
4.92617
 20
3.6869
 30
0.0
 11
4.9036
 21
3.68192
 31
0.0
  0
LINE
  8
0
 62
     0
 10
4.9036
 20
3.68192
 30
0.0
 11
4.8801
 21
3.68718
 31
0.0
  0
LINE
  8
0
 62
     0
 10
4.8801
 20
3.68718
 30
0.0
 11
4.86019
 21
3.70296
 31
0.0
  0
LINE
  8
0
 62
     0
 10
4.86019
 20
3.70296
 30
0.0
 11
4.84651
 21
3.72857
 31
0.0
  0
LINE
  8
0
 62
     0
 10
4.84651
 20
3.72857
 30
0.0
 11
4.84196
 21
3.76329
 31
0.0
  0
LINE
  8
0
 62
     0
 10
4.84196
 20
3.76329
 30
0.0
 11
4.84771
 21
3.80767
 31
0.0
  0
LINE
  8
0
 62
     0
 10
4.84771
 20
3.80767
 30
0.0
 11
4.86518
 21
3.8475
 31
0.0
  0
LINE
  8
0
 62
     0
 10
4.86518
 20
3.8475
 30
0.0
 11
4.89139
 21
3.87565
 31
0.0
  0
LINE
  8
0
 62
     0
 10
4.89139
 20
3.87565
 30
0.0
 11
4.92333
 21
3.88504
 31
0.0
  0
LINE
  8
0
 62
     0
 10
4.92333
 20
3.88504
 30
0.0
 11
4.947
 21
3.87875
 31
0.0
  0
LINE
  8
0
 62
     0
 10
4.947
 20
3.87875
 30
0.0
 11
4.96783
 21
3.85704
 31
0.0
  0
LINE
  8
0
 62
     0
 10
4.96783
 20
3.85704
 30
0.0
 11
4.97131
 21
3.87853
 31
0.0
  0
LINE
  8
0
 62
     0
 10
4.97131
 20
3.87853
 30
0.0
 11
5.0084
 21
3.87853
 31
0.0
  0
LINE
  8
0
 62
     0
 10
4.88189
 20
3.75396
 30
0.0
 11
4.89144
 21
3.71903
 31
0.0
  0
LINE
  8
0
 62
     0
 10
4.89144
 20
3.71903
 30
0.0
 11
4.90989
 21
3.70969
 31
0.0
  0
LINE
  8
0
 62
     0
 10
4.90989
 20
3.70969
 30
0.0
 11
4.93181
 21
3.71989
 31
0.0
  0
LINE
  8
0
 62
     0
 10
4.93181
 20
3.71989
 30
0.0
 11
4.94917
 21
3.76112
 31
0.0
  0
LINE
  8
0
 62
     0
 10
4.94917
 20
3.76112
 30
0.0
 11
4.95676
 21
3.81689
 31
0.0
  0
LINE
  8
0
 62
     0
 10
4.95676
 20
3.81689
 30
0.0
 11
4.94874
 21
3.84489
 31
0.0
  0
LINE
  8
0
 62
     0
 10
4.94874
 20
3.84489
 30
0.0
 11
4.92964
 21
3.85444
 31
0.0
  0
LINE
  8
0
 62
     0
 10
4.92964
 20
3.85444
 30
0.0
 11
4.90771
 21
3.84511
 31
0.0
  0
LINE
  8
0
 62
     0
 10
4.90771
 20
3.84511
 30
0.0
 11
4.8884
 21
3.80453
 31
0.0
  0
LINE
  8
0
 62
     0
 10
4.8884
 20
3.80453
 30
0.0
 11
4.88189
 21
3.75396
 31
0.0
  0
LINE
  8
0
 62
     0
 10
5.10032
 20
3.93886
 30
0.0
 11
5.17844
 21
3.93886
 31
0.0
  0
LINE
  8
0
 62
     0
 10
5.17844
 20
3.93886
 30
0.0
 11
5.17844
 21
3.84229
 31
0.0
  0
LINE
  8
0
 62
     0
 10
5.17844
 20
3.84229
 30
0.0
 11
5.20469
 21
3.86051
 31
0.0
  0
LINE
  8
0
 62
     0
 10
5.20469
 20
3.86051
 30
0.0
 11
5.23725
 21
3.8666
 31
0.0
  0
LINE
  8
0
 62
     0
 10
5.23725
 20
3.8666
 30
0.0
 11
5.27089
 21
3.85997
 31
0.0
  0
LINE
  8
0
 62
     0
 10
5.27089
 20
3.85997
 30
0.0
 11
5.29824
 21
3.84011
 31
0.0
  0
LINE
  8
0
 62
     0
 10
5.29824
 20
3.84011
 30
0.0
 11
5.31629
 21
3.80789
 31
0.0
  0
LINE
  8
0
 62
     0
 10
5.31629
 20
3.80789
 30
0.0
 11
5.32232
 21
3.76417
 31
0.0
  0
LINE
  8
0
 62
     0
 10
5.32232
 20
3.76417
 30
0.0
 11
5.31125
 21
3.706
 31
0.0
  0
LINE
  8
0
 62
     0
 10
5.31125
 20
3.706
 30
0.0
 11
5.28087
 21
3.66824
 31
0.0
  0
LINE
  8
0
 62
     0
 10
5.28087
 20
3.66824
 30
0.0
 11
5.23768
 21
3.65587
 31
0.0
  0
LINE
  8
0
 62
     0
 10
5.23768
 20
3.65587
 30
0.0
 11
5.20057
 21
3.66456
 31
0.0
  0
LINE
  8
0
 62
     0
 10
5.20057
 20
3.66456
 30
0.0
 11
5.17279
 21
3.69015
 31
0.0
  0
LINE
  8
0
 62
     0
 10
5.17279
 20
3.69015
 30
0.0
 11
5.17279
 21
3.66043
 31
0.0
  0
LINE
  8
0
 62
     0
 10
5.17279
 20
3.66043
 30
0.0
 11
5.10032
 21
3.66043
 31
0.0
  0
LINE
  8
0
 62
     0
 10
5.10032
 20
3.66043
 30
0.0
 11
5.10032
 21
3.93886
 31
0.0
  0
LINE
  8
0
 62
     0
 10
5.17779
 20
3.76178
 30
0.0
 11
5.18756
 21
3.72401
 31
0.0
  0
LINE
  8
0
 62
     0
 10
5.18756
 20
3.72401
 30
0.0
 11
5.21251
 21
3.71251
 31
0.0
  0
LINE
  8
0
 62
     0
 10
5.21251
 20
3.71251
 30
0.0
 11
5.23574
 21
3.72401
 31
0.0
  0
LINE
  8
0
 62
     0
 10
5.23574
 20
3.72401
 30
0.0
 11
5.24507
 21
3.76264
 31
0.0
  0
LINE
  8
0
 62
     0
 10
5.24507
 20
3.76264
 30
0.0
 11
5.23574
 21
3.79758
 31
0.0
  0
LINE
  8
0
 62
     0
 10
5.23574
 20
3.79758
 30
0.0
 11
5.2136
 21
3.80886
 31
0.0
  0
LINE
  8
0
 62
     0
 10
5.2136
 20
3.80886
 30
0.0
 11
5.18778
 21
3.79715
 31
0.0
  0
LINE
  8
0
 62
     0
 10
5.18778
 20
3.79715
 30
0.0
 11
5.17779
 21
3.76178
 31
0.0
  0
LINE
  8
0
 62
     0
 10
5.58285
 20
3.74203
 30
0.0
 11
5.4279
 21
3.74203
 31
0.0
  0
LINE
  8
0
 62
     0
 10
5.4279
 20
3.74203
 30
0.0
 11
5.4381
 21
3.71446
 31
0.0
  0
LINE
  8
0
 62
     0
 10
5.4381
 20
3.71446
 30
0.0
 11
5.46718
 21
3.70122
 31
0.0
  0
LINE
  8
0
 62
     0
 10
5.46718
 20
3.70122
 30
0.0
 11
5.48888
 21
3.70687
 31
0.0
  0
LINE
  8
0
 62
     0
 10
5.48888
 20
3.70687
 30
0.0
 11
5.50233
 21
3.71967
 31
0.0
  0
LINE
  8
0
 62
     0
 10
5.50233
 20
3.71967
 30
0.0
 11
5.5785
 21
3.71272
 31
0.0
  0
LINE
  8
0
 62
     0
 10
5.5785
 20
3.71272
 30
0.0
 11
5.5364
 21
3.66911
 31
0.0
  0
LINE
  8
0
 62
     0
 10
5.5364
 20
3.66911
 30
0.0
 11
5.50629
 21
3.65924
 31
0.0
  0
LINE
  8
0
 62
     0
 10
5.50629
 20
3.65924
 30
0.0
 11
5.46565
 21
3.65587
 31
0.0
  0
LINE
  8
0
 62
     0
 10
5.46565
 20
3.65587
 30
0.0
 11
5.42974
 21
3.65875
 31
0.0
  0
LINE
  8
0
 62
     0
 10
5.42974
 20
3.65875
 30
0.0
 11
5.4025
 21
3.66715
 31
0.0
  0
LINE
  8
0
 62
     0
 10
5.4025
 20
3.66715
 30
0.0
 11
5.36431
 21
3.70296
 31
0.0
  0
LINE
  8
0
 62
     0
 10
5.36431
 20
3.70296
 30
0.0
 11
5.34933
 21
3.7609
 31
0.0
  0
LINE
  8
0
 62
     0
 10
5.34933
 20
3.7609
 30
0.0
 11
5.35682
 21
3.80365
 31
0.0
  0
LINE
  8
0
 62
     0
 10
5.35682
 20
3.80365
 30
0.0
 11
5.3795
 21
3.83729
 31
0.0
  0
LINE
  8
0
 62
     0
 10
5.3795
 20
3.83729
 30
0.0
 11
5.41558
 21
3.85926
 31
0.0
  0
LINE
  8
0
 62
     0
 10
5.41558
 20
3.85926
 30
0.0
 11
5.46326
 21
3.8666
 31
0.0
  0
LINE
  8
0
 62
     0
 10
5.46326
 20
3.8666
 30
0.0
 11
5.50201
 21
3.86333
 31
0.0
  0
LINE
  8
0
 62
     0
 10
5.50201
 20
3.86333
 30
0.0
 11
5.53163
 21
3.85357
 31
0.0
  0
LINE
  8
0
 62
     0
 10
5.53163
 20
3.85357
 30
0.0
 11
5.56982
 21
3.8156
 31
0.0
  0
LINE
  8
0
 62
     0
 10
5.56982
 20
3.8156
 30
0.0
 11
5.57958
 21
3.78694
 31
0.0
  0
LINE
  8
0
 62
     0
 10
5.57958
 20
3.78694
 30
0.0
 11
5.58285
 21
3.75092
 31
0.0
  0
LINE
  8
0
 62
     0
 10
5.58285
 20
3.75092
 30
0.0
 11
5.58285
 21
3.74203
 31
0.0
  0
LINE
  8
0
 62
     0
 10
5.50429
 20
3.77914
 30
0.0
 11
5.49214
 21
3.81104
 31
0.0
  0
LINE
  8
0
 62
     0
 10
5.49214
 20
3.81104
 30
0.0
 11
5.46653
 21
3.82081
 31
0.0
  0
LINE
  8
0
 62
     0
 10
5.46653
 20
3.82081
 30
0.0
 11
5.43701
 21
3.80626
 31
0.0
  0
LINE
  8
0
 62
     0
 10
5.43701
 20
3.80626
 30
0.0
 11
5.42811
 21
3.77914
 31
0.0
  0
LINE
  8
0
 62
     0
 10
5.42811
 20
3.77914
 30
0.0
 11
5.50429
 21
3.77914
 31
0.0
  0
LINE
  8
0
 62
     0
 10
5.61951
 20
3.86203
 30
0.0
 11
5.692
 21
3.86203
 31
0.0
  0
LINE
  8
0
 62
     0
 10
5.692
 20
3.86203
 30
0.0
 11
5.692
 21
3.82904
 31
0.0
  0
LINE
  8
0
 62
     0
 10
5.692
 20
3.82904
 30
0.0
 11
5.71349
 21
3.85856
 31
0.0
  0
LINE
  8
0
 62
     0
 10
5.71349
 20
3.85856
 30
0.0
 11
5.74083
 21
3.8666
 31
0.0
  0
LINE
  8
0
 62
     0
 10
5.74083
 20
3.8666
 30
0.0
 11
5.77838
 21
3.85596
 31
0.0
  0
LINE
  8
0
 62
     0
 10
5.77838
 20
3.85596
 30
0.0
 11
5.75429
 21
3.80106
 31
0.0
  0
LINE
  8
0
 62
     0
 10
5.75429
 20
3.80106
 30
0.0
 11
5.73281
 21
3.80669
 31
0.0
  0
LINE
  8
0
 62
     0
 10
5.73281
 20
3.80669
 30
0.0
 11
5.70915
 21
3.79411
 31
0.0
  0
LINE
  8
0
 62
     0
 10
5.70915
 20
3.79411
 30
0.0
 11
5.70014
 21
3.76882
 31
0.0
  0
LINE
  8
0
 62
     0
 10
5.70014
 20
3.76882
 30
0.0
 11
5.69721
 21
3.72814
 31
0.0
  0
LINE
  8
0
 62
     0
 10
5.69721
 20
3.72814
 30
0.0
 11
5.69721
 21
3.66043
 31
0.0
  0
LINE
  8
0
 62
     0
 10
5.69721
 20
3.66043
 30
0.0
 11
5.61951
 21
3.66043
 31
0.0
  0
LINE
  8
0
 62
     0
 10
5.61951
 20
3.66043
 30
0.0
 11
5.61951
 21
3.86203
 31
0.0
  0
LINE
  8
0
 62
     0
 10
5.80496
 20
3.93886
 30
0.0
 11
5.88396
 21
3.93886
 31
0.0
  0
LINE
  8
0
 62
     0
 10
5.88396
 20
3.93886
 30
0.0
 11
5.88396
 21
3.79519
 31
0.0
  0
LINE
  8
0
 62
     0
 10
5.88396
 20
3.79519
 30
0.0
 11
5.94168
 21
3.86203
 31
0.0
  0
LINE
  8
0
 62
     0
 10
5.94168
 20
3.86203
 30
0.0
 11
6.03674
 21
3.86203
 31
0.0
  0
LINE
  8
0
 62
     0
 10
6.03674
 20
3.86203
 30
0.0
 11
5.96446
 21
3.7915
 31
0.0
  0
LINE
  8
0
 62
     0
 10
5.96446
 20
3.7915
 30
0.0
 11
6.04085
 21
3.66043
 31
0.0
  0
LINE
  8
0
 62
     0
 10
6.04085
 20
3.66043
 30
0.0
 11
5.95383
 21
3.66043
 31
0.0
  0
LINE
  8
0
 62
     0
 10
5.95383
 20
3.66043
 30
0.0
 11
5.91303
 21
3.74137
 31
0.0
  0
LINE
  8
0
 62
     0
 10
5.91303
 20
3.74137
 30
0.0
 11
5.88396
 21
3.71294
 31
0.0
  0
LINE
  8
0
 62
     0
 10
5.88396
 20
3.71294
 30
0.0
 11
5.88396
 21
3.66043
 31
0.0
  0
LINE
  8
0
 62
     0
 10
5.88396
 20
3.66043
 30
0.0
 11
5.80496
 21
3.66043
 31
0.0
  0
LINE
  8
0
 62
     0
 10
5.80496
 20
3.66043
 30
0.0
 11
5.80496
 21
3.93886
 31
0.0
  0
LINE
  8
0
 62
     0
 10
6.05106
 20
3.71619
 30
0.0
 11
6.12765
 21
3.72358
 31
0.0
  0
LINE
  8
0
 62
     0
 10
6.12765
 20
3.72358
 30
0.0
 11
6.1409
 21
3.70383
 31
0.0
  0
LINE
  8
0
 62
     0
 10
6.1409
 20
3.70383
 30
0.0
 11
6.16368
 21
3.69797
 31
0.0
  0
LINE
  8
0
 62
     0
 10
6.16368
 20
3.69797
 30
0.0
 11
6.18799
 21
3.70469
 31
0.0
  0
LINE
  8
0
 62
     0
 10
6.18799
 20
3.70469
 30
0.0
 11
6.1945
 21
3.71707
 31
0.0
  0
LINE
  8
0
 62
     0
 10
6.1945
 20
3.71707
 30
0.0
 11
6.18582
 21
3.72987
 31
0.0
  0
LINE
  8
0
 62
     0
 10
6.18582
 20
3.72987
 30
0.0
 11
6.15261
 21
3.7379
 31
0.0
  0
LINE
  8
0
 62
     0
 10
6.15261
 20
3.7379
 30
0.0
 11
6.09663
 21
3.75092
 31
0.0
  0
LINE
  8
0
 62
     0
 10
6.09663
 20
3.75092
 30
0.0
 11
6.07015
 21
3.77111
 31
0.0
  0
LINE
  8
0
 62
     0
 10
6.07015
 20
3.77111
 30
0.0
 11
6.05951
 21
3.80365
 31
0.0
  0
LINE
  8
0
 62
     0
 10
6.05951
 20
3.80365
 30
0.0
 11
6.07101
 21
3.83794
 31
0.0
  0
LINE
  8
0
 62
     0
 10
6.07101
 20
3.83794
 30
0.0
 11
6.10292
 21
3.85943
 31
0.0
  0
LINE
  8
0
 62
     0
 10
6.10292
 20
3.85943
 30
0.0
 11
6.15761
 21
3.8666
 31
0.0
  0
LINE
  8
0
 62
     0
 10
6.15761
 20
3.8666
 30
0.0
 11
6.21078
 21
3.86117
 31
0.0
  0
LINE
  8
0
 62
     0
 10
6.21078
 20
3.86117
 30
0.0
 11
6.23942
 21
3.84403
 31
0.0
  0
LINE
  8
0
 62
     0
 10
6.23942
 20
3.84403
 30
0.0
 11
6.25851
 21
3.81278
 31
0.0
  0
LINE
  8
0
 62
     0
 10
6.25851
 20
3.81278
 30
0.0
 11
6.18517
 21
3.80561
 31
0.0
  0
LINE
  8
0
 62
     0
 10
6.18517
 20
3.80561
 30
0.0
 11
6.17583
 21
3.81972
 31
0.0
  0
LINE
  8
0
 62
     0
 10
6.17583
 20
3.81972
 30
0.0
 11
6.15369
 21
3.82579
 31
0.0
  0
LINE
  8
0
 62
     0
 10
6.15369
 20
3.82579
 30
0.0
 11
6.1346
 21
3.82101
 31
0.0
  0
LINE
  8
0
 62
     0
 10
6.1346
 20
3.82101
 30
0.0
 11
6.12875
 21
3.80994
 31
0.0
  0
LINE
  8
0
 62
     0
 10
6.12875
 20
3.80994
 30
0.0
 11
6.13633
 21
3.79867
 31
0.0
  0
LINE
  8
0
 62
     0
 10
6.13633
 20
3.79867
 30
0.0
 11
6.16932
 21
3.79194
 31
0.0
  0
LINE
  8
0
 62
     0
 10
6.16932
 20
3.79194
 30
0.0
 11
6.22661
 21
3.77957
 31
0.0
  0
LINE
  8
0
 62
     0
 10
6.22661
 20
3.77957
 30
0.0
 11
6.25549
 21
3.75743
 31
0.0
  0
LINE
  8
0
 62
     0
 10
6.25549
 20
3.75743
 30
0.0
 11
6.26546
 21
3.72575
 31
0.0
  0
LINE
  8
0
 62
     0
 10
6.26546
 20
3.72575
 30
0.0
 11
6.25483
 21
3.69168
 31
0.0
  0
LINE
  8
0
 62
     0
 10
6.25483
 20
3.69168
 30
0.0
 11
6.2214
 21
3.66542
 31
0.0
  0
LINE
  8
0
 62
     0
 10
6.2214
 20
3.66542
 30
0.0
 11
6.15978
 21
3.65565
 31
0.0
  0
LINE
  8
0
 62
     0
 10
6.15978
 20
3.65565
 30
0.0
 11
6.11242
 21
3.65956
 31
0.0
  0
LINE
  8
0
 62
     0
 10
6.11242
 20
3.65956
 30
0.0
 11
6.081
 21
3.67128
 31
0.0
  0
LINE
  8
0
 62
     0
 10
6.081
 20
3.67128
 30
0.0
 11
6.06179
 21
3.69043
 31
0.0
  0
LINE
  8
0
 62
     0
 10
6.06179
 20
3.69043
 30
0.0
 11
6.05106
 21
3.71619
 31
0.0
  0
LINE
  8
0
 62
     0
 10
6.45285
 20
3.73921
 30
0.0
 11
6.52621
 21
3.73096
 31
0.0
  0
LINE
  8
0
 62
     0
 10
6.52621
 20
3.73096
 30
0.0
 11
6.50624
 21
3.69103
 31
0.0
  0
LINE
  8
0
 62
     0
 10
6.50624
 20
3.69103
 30
0.0
 11
6.47086
 21
3.66499
 31
0.0
  0
LINE
  8
0
 62
     0
 10
6.47086
 20
3.66499
 30
0.0
 11
6.41618
 21
3.65565
 31
0.0
  0
LINE
  8
0
 62
     0
 10
6.41618
 20
3.65565
 30
0.0
 11
6.36257
 21
3.66151
 31
0.0
  0
LINE
  8
0
 62
     0
 10
6.36257
 20
3.66151
 30
0.0
 11
6.3259
 21
3.68104
 31
0.0
  0
LINE
  8
0
 62
     0
 10
6.3259
 20
3.68104
 30
0.0
 11
6.30181
 21
3.71251
 31
0.0
  0
LINE
  8
0
 62
     0
 10
6.30181
 20
3.71251
 30
0.0
 11
6.29313
 21
3.76025
 31
0.0
  0
LINE
  8
0
 62
     0
 10
6.29313
 20
3.76025
 30
0.0
 11
6.30376
 21
3.81212
 31
0.0
  0
LINE
  8
0
 62
     0
 10
6.30376
 20
3.81212
 30
0.0
 11
6.32503
 21
3.83925
 31
0.0
  0
LINE
  8
0
 62
     0
 10
6.32503
 20
3.83925
 30
0.0
 11
6.35281
 21
3.85726
 31
0.0
  0
LINE
  8
0
 62
     0
 10
6.35281
 20
3.85726
 30
0.0
 11
6.41054
 21
3.8666
 31
0.0
  0
LINE
  8
0
 62
     0
 10
6.41054
 20
3.8666
 30
0.0
 11
6.45404
 21
3.86219
 31
0.0
  0
LINE
  8
0
 62
     0
 10
6.45404
 20
3.86219
 30
0.0
 11
6.48583
 21
3.84901
 31
0.0
  0
LINE
  8
0
 62
     0
 10
6.48583
 20
3.84901
 30
0.0
 11
6.50797
 21
3.82731
 31
0.0
  0
LINE
  8
0
 62
     0
 10
6.50797
 20
3.82731
 30
0.0
 11
6.52229
 21
3.79736
 31
0.0
  0
LINE
  8
0
 62
     0
 10
6.52229
 20
3.79736
 30
0.0
 11
6.4496
 21
3.7876
 31
0.0
  0
LINE
  8
0
 62
     0
 10
6.4496
 20
3.7876
 30
0.0
 11
6.43701
 21
3.80713
 31
0.0
  0
LINE
  8
0
 62
     0
 10
6.43701
 20
3.80713
 30
0.0
 11
6.41292
 21
3.81364
 31
0.0
  0
LINE
  8
0
 62
     0
 10
6.41292
 20
3.81364
 30
0.0
 11
6.38189
 21
3.79975
 31
0.0
  0
LINE
  8
0
 62
     0
 10
6.38189
 20
3.79975
 30
0.0
 11
6.36996
 21
3.75831
 31
0.0
  0
LINE
  8
0
 62
     0
 10
6.36996
 20
3.75831
 30
0.0
 11
6.38167
 21
3.72032
 31
0.0
  0
LINE
  8
0
 62
     0
 10
6.38167
 20
3.72032
 30
0.0
 11
6.41183
 21
3.70751
 31
0.0
  0
LINE
  8
0
 62
     0
 10
6.41183
 20
3.70751
 30
0.0
 11
6.43722
 21
3.71533
 31
0.0
  0
LINE
  8
0
 62
     0
 10
6.43722
 20
3.71533
 30
0.0
 11
6.45285
 21
3.73921
 31
0.0
  0
LINE
  8
0
 62
     0
 10
6.55192
 20
3.76069
 30
0.0
 11
6.55963
 21
3.80279
 31
0.0
  0
LINE
  8
0
 62
     0
 10
6.55963
 20
3.80279
 30
0.0
 11
6.58296
 21
3.83664
 31
0.0
  0
LINE
  8
0
 62
     0
 10
6.58296
 20
3.83664
 30
0.0
 11
6.61957
 21
3.8591
 31
0.0
  0
LINE
  8
0
 62
     0
 10
6.61957
 20
3.8591
 30
0.0
 11
6.66715
 21
3.8666
 31
0.0
  0
LINE
  8
0
 62
     0
 10
6.66715
 20
3.8666
 30
0.0
 11
6.72026
 21
3.85781
 31
0.0
  0
LINE
  8
0
 62
     0
 10
6.72026
 20
3.85781
 30
0.0
 11
6.75874
 21
3.83143
 31
0.0
  0
LINE
  8
0
 62
     0
 10
6.75874
 20
3.83143
 30
0.0
 11
6.77729
 21
3.79992
 31
0.0
  0
LINE
  8
0
 62
     0
 10
6.77729
 20
3.79992
 30
0.0
 11
6.78347
 21
3.76178
 31
0.0
  0
LINE
  8
0
 62
     0
 10
6.78347
 20
3.76178
 30
0.0
 11
6.77572
 21
3.71951
 31
0.0
  0
LINE
  8
0
 62
     0
 10
6.77572
 20
3.71951
 30
0.0
 11
6.75265
 21
3.6856
 31
0.0
  0
LINE
  8
0
 62
     0
 10
6.75265
 20
3.6856
 30
0.0
 11
6.71588
 21
3.66331
 31
0.0
  0
LINE
  8
0
 62
     0
 10
6.71588
 20
3.66331
 30
0.0
 11
6.66737
 21
3.65587
 31
0.0
  0
LINE
  8
0
 62
     0
 10
6.66737
 20
3.65587
 30
0.0
 11
6.62337
 21
3.66206
 31
0.0
  0
LINE
  8
0
 62
     0
 10
6.62337
 20
3.66206
 30
0.0
 11
6.58882
 21
3.68061
 31
0.0
  0
LINE
  8
0
 62
     0
 10
6.58882
 20
3.68061
 30
0.0
 11
6.56108
 21
3.71593
 31
0.0
  0
LINE
  8
0
 62
     0
 10
6.56108
 20
3.71593
 30
0.0
 11
6.55192
 21
3.76069
 31
0.0
  0
LINE
  8
0
 62
     0
 10
6.62939
 20
3.7609
 30
0.0
 11
6.64025
 21
3.72097
 31
0.0
  0
LINE
  8
0
 62
     0
 10
6.64025
 20
3.72097
 30
0.0
 11
6.66781
 21
3.70817
 31
0.0
  0
LINE
  8
0
 62
     0
 10
6.66781
 20
3.70817
 30
0.0
 11
6.69515
 21
3.72076
 31
0.0
  0
LINE
  8
0
 62
     0
 10
6.69515
 20
3.72076
 30
0.0
 11
6.706
 21
3.76156
 31
0.0
  0
LINE
  8
0
 62
     0
 10
6.706
 20
3.76156
 30
0.0
 11
6.69515
 21
3.80062
 31
0.0
  0
LINE
  8
0
 62
     0
 10
6.69515
 20
3.80062
 30
0.0
 11
6.66824
 21
3.81342
 31
0.0
  0
LINE
  8
0
 62
     0
 10
6.66824
 20
3.81342
 30
0.0
 11
6.64025
 21
3.8004
 31
0.0
  0
LINE
  8
0
 62
     0
 10
6.64025
 20
3.8004
 30
0.0
 11
6.62939
 21
3.7609
 31
0.0
  0
LINE
  8
0
 62
     0
 10
6.82308
 20
3.93886
 30
0.0
 11
6.90056
 21
3.93886
 31
0.0
  0
LINE
  8
0
 62
     0
 10
6.90056
 20
3.93886
 30
0.0
 11
6.90056
 21
3.66043
 31
0.0
  0
LINE
  8
0
 62
     0
 10
6.90056
 20
3.66043
 30
0.0
 11
6.82308
 21
3.66043
 31
0.0
  0
LINE
  8
0
 62
     0
 10
6.82308
 20
3.66043
 30
0.0
 11
6.82308
 21
3.93886
 31
0.0
  0
LINE
  8
0
 62
     0
 10
7.01992
 20
3.79671
 30
0.0
 11
6.94613
 21
3.80453
 31
0.0
  0
LINE
  8
0
 62
     0
 10
6.94613
 20
3.80453
 30
0.0
 11
6.95806
 21
3.8349
 31
0.0
  0
LINE
  8
0
 62
     0
 10
6.95806
 20
3.8349
 30
0.0
 11
6.98085
 21
3.85422
 31
0.0
  0
LINE
  8
0
 62
     0
 10
6.98085
 20
3.85422
 30
0.0
 11
7.01014
 21
3.86333
 31
0.0
  0
LINE
  8
0
 62
     0
 10
7.01014
 20
3.86333
 30
0.0
 11
7.05029
 21
3.8666
 31
0.0
  0
LINE
  8
0
 62
     0
 10
7.05029
 20
3.8666
 30
0.0
 11
7.10607
 21
3.86268
 31
0.0
  0
LINE
  8
0
 62
     0
 10
7.10607
 20
3.86268
 30
0.0
 11
7.14122
 21
3.84663
 31
0.0
  0
LINE
  8
0
 62
     0
 10
7.14122
 20
3.84663
 30
0.0
 11
7.15685
 21
3.82232
 31
0.0
  0
LINE
  8
0
 62
     0
 10
7.15685
 20
3.82232
 30
0.0
 11
7.16249
 21
3.79237
 31
0.0
  0
LINE
  8
0
 62
     0
 10
7.16249
 20
3.79237
 30
0.0
 11
7.16249
 21
3.7034
 31
0.0
  0
LINE
  8
0
 62
     0
 10
7.16249
 20
3.7034
 30
0.0
 11
7.16422
 21
3.68104
 31
0.0
  0
LINE
  8
0
 62
     0
 10
7.16422
 20
3.68104
 30
0.0
 11
7.17225
 21
3.66043
 31
0.0
  0
LINE
  8
0
 62
     0
 10
7.17225
 20
3.66043
 30
0.0
 11
7.09978
 21
3.66043
 31
0.0
  0
LINE
  8
0
 62
     0
 10
7.09978
 20
3.66043
 30
0.0
 11
7.09392
 21
3.67236
 31
0.0
  0
LINE
  8
0
 62
     0
 10
7.09392
 20
3.67236
 30
0.0
 11
7.09131
 21
3.68517
 31
0.0
  0
LINE
  8
0
 62
     0
 10
7.09131
 20
3.68517
 30
0.0
 11
7.06114
 21
3.66433
 31
0.0
  0
LINE
  8
0
 62
     0
 10
7.06114
 20
3.66433
 30
0.0
 11
7.01361
 21
3.65587
 31
0.0
  0
LINE
  8
0
 62
     0
 10
7.01361
 20
3.65587
 30
0.0
 11
6.98172
 21
3.66004
 31
0.0
  0
LINE
  8
0
 62
     0
 10
6.98172
 20
3.66004
 30
0.0
 11
6.95871
 21
3.67258
 31
0.0
  0
LINE
  8
0
 62
     0
 10
6.95871
 20
3.67258
 30
0.0
 11
6.94006
 21
3.71382
 31
0.0
  0
LINE
  8
0
 62
     0
 10
6.94006
 20
3.71382
 30
0.0
 11
6.9535
 21
3.75157
 31
0.0
  0
LINE
  8
0
 62
     0
 10
6.9535
 20
3.75157
 30
0.0
 11
6.9726
 21
3.76449
 31
0.0
  0
LINE
  8
0
 62
     0
 10
6.9726
 20
3.76449
 30
0.0
 11
7.00319
 21
3.77371
 31
0.0
  0
LINE
  8
0
 62
     0
 10
7.00319
 20
3.77371
 30
0.0
 11
7.03906
 21
3.78108
 31
0.0
  0
LINE
  8
0
 62
     0
 10
7.03906
 20
3.78108
 30
0.0
 11
7.05963
 21
3.78586
 31
0.0
  0
LINE
  8
0
 62
     0
 10
7.05963
 20
3.78586
 30
0.0
 11
7.08697
 21
3.79497
 31
0.0
  0
LINE
  8
0
 62
     0
 10
7.08697
 20
3.79497
 30
0.0
 11
7.08111
 21
3.81494
 31
0.0
  0
LINE
  8
0
 62
     0
 10
7.08111
 20
3.81494
 30
0.0
 11
7.06049
 21
3.82081
 31
0.0
  0
LINE
  8
0
 62
     0
 10
7.06049
 20
3.82081
 30
0.0
 11
7.03185
 21
3.81472
 31
0.0
  0
LINE
  8
0
 62
     0
 10
7.03185
 20
3.81472
 30
0.0
 11
7.01992
 21
3.79671
 31
0.0
  0
LINE
  8
0
 62
     0
 10
7.08697
 20
3.75613
 30
0.0
 11
7.05376
 21
3.74615
 31
0.0
  0
LINE
  8
0
 62
     0
 10
7.05376
 20
3.74615
 30
0.0
 11
7.02403
 21
3.73378
 31
0.0
  0
LINE
  8
0
 62
     0
 10
7.02403
 20
3.73378
 30
0.0
 11
7.01753
 21
3.71946
 31
0.0
  0
LINE
  8
0
 62
     0
 10
7.01753
 20
3.71946
 30
0.0
 11
7.02382
 21
3.70449
 31
0.0
  0
LINE
  8
0
 62
     0
 10
7.02382
 20
3.70449
 30
0.0
 11
7.04249
 21
3.69883
 31
0.0
  0
LINE
  8
0
 62
     0
 10
7.04249
 20
3.69883
 30
0.0
 11
7.06657
 21
3.70514
 31
0.0
  0
LINE
  8
0
 62
     0
 10
7.06657
 20
3.70514
 30
0.0
 11
7.08219
 21
3.72032
 31
0.0
  0
LINE
  8
0
 62
     0
 10
7.08219
 20
3.72032
 30
0.0
 11
7.08697
 21
3.74376
 31
0.0
  0
LINE
  8
0
 62
     0
 10
7.08697
 20
3.74376
 30
0.0
 11
7.08697
 21
3.75613
 31
0.0
  0
LINE
  8
0
 62
     0
 10
7.21263
 20
3.93886
 30
0.0
 11
7.29075
 21
3.93886
 31
0.0
  0
LINE
  8
0
 62
     0
 10
7.29075
 20
3.93886
 30
0.0
 11
7.29075
 21
3.84229
 31
0.0
  0
LINE
  8
0
 62
     0
 10
7.29075
 20
3.84229
 30
0.0
 11
7.317
 21
3.86051
 31
0.0
  0
LINE
  8
0
 62
     0
 10
7.317
 20
3.86051
 30
0.0
 11
7.34956
 21
3.8666
 31
0.0
  0
LINE
  8
0
 62
     0
 10
7.34956
 20
3.8666
 30
0.0
 11
7.38319
 21
3.85997
 31
0.0
  0
LINE
  8
0
 62
     0
 10
7.38319
 20
3.85997
 30
0.0
 11
7.41054
 21
3.84011
 31
0.0
  0
LINE
  8
0
 62
     0
 10
7.41054
 20
3.84011
 30
0.0
 11
7.4286
 21
3.80789
 31
0.0
  0
LINE
  8
0
 62
     0
 10
7.4286
 20
3.80789
 30
0.0
 11
7.43463
 21
3.76417
 31
0.0
  0
LINE
  8
0
 62
     0
 10
7.43463
 20
3.76417
 30
0.0
 11
7.42356
 21
3.706
 31
0.0
  0
LINE
  8
0
 62
     0
 10
7.42356
 20
3.706
 30
0.0
 11
7.39318
 21
3.66824
 31
0.0
  0
LINE
  8
0
 62
     0
 10
7.39318
 20
3.66824
 30
0.0
 11
7.34999
 21
3.65587
 31
0.0
  0
LINE
  8
0
 62
     0
 10
7.34999
 20
3.65587
 30
0.0
 11
7.31287
 21
3.66456
 31
0.0
  0
LINE
  8
0
 62
     0
 10
7.31287
 20
3.66456
 30
0.0
 11
7.2851
 21
3.69015
 31
0.0
  0
LINE
  8
0
 62
     0
 10
7.2851
 20
3.69015
 30
0.0
 11
7.2851
 21
3.66043
 31
0.0
  0
LINE
  8
0
 62
     0
 10
7.2851
 20
3.66043
 30
0.0
 11
7.21263
 21
3.66043
 31
0.0
  0
LINE
  8
0
 62
     0
 10
7.21263
 20
3.66043
 30
0.0
 11
7.21263
 21
3.93886
 31
0.0
  0
LINE
  8
0
 62
     0
 10
7.2901
 20
3.76178
 30
0.0
 11
7.29986
 21
3.72401
 31
0.0
  0
LINE
  8
0
 62
     0
 10
7.29986
 20
3.72401
 30
0.0
 11
7.32482
 21
3.71251
 31
0.0
  0
LINE
  8
0
 62
     0
 10
7.32482
 20
3.71251
 30
0.0
 11
7.34804
 21
3.72401
 31
0.0
  0
LINE
  8
0
 62
     0
 10
7.34804
 20
3.72401
 30
0.0
 11
7.35736
 21
3.76264
 31
0.0
  0
LINE
  8
0
 62
     0
 10
7.35736
 20
3.76264
 30
0.0
 11
7.34804
 21
3.79758
 31
0.0
  0
LINE
  8
0
 62
     0
 10
7.34804
 20
3.79758
 30
0.0
 11
7.3259
 21
3.80886
 31
0.0
  0
LINE
  8
0
 62
     0
 10
7.3259
 20
3.80886
 30
0.0
 11
7.30007
 21
3.79715
 31
0.0
  0
LINE
  8
0
 62
     0
 10
7.30007
 20
3.79715
 30
0.0
 11
7.2901
 21
3.76178
 31
0.0
  0
LINE
  8
0
 62
     0
 10
7.47162
 20
3.7379
 30
0.0
 11
7.5541
 21
3.7379
 31
0.0
  0
LINE
  8
0
 62
     0
 10
7.5541
 20
3.7379
 30
0.0
 11
7.5541
 21
3.66043
 31
0.0
  0
LINE
  8
0
 62
     0
 10
7.5541
 20
3.66043
 30
0.0
 11
7.47162
 21
3.66043
 31
0.0
  0
LINE
  8
0
 62
     0
 10
7.47162
 20
3.66043
 30
0.0
 11
7.47162
 21
3.7379
 31
0.0
  0
LINE
  8
0
 62
     0
 10
7.59174
 20
3.76069
 30
0.0
 11
7.59944
 21
3.80279
 31
0.0
  0
LINE
  8
0
 62
     0
 10
7.59944
 20
3.80279
 30
0.0
 11
7.62278
 21
3.83664
 31
0.0
  0
LINE
  8
0
 62
     0
 10
7.62278
 20
3.83664
 30
0.0
 11
7.6594
 21
3.8591
 31
0.0
  0
LINE
  8
0
 62
     0
 10
7.6594
 20
3.8591
 30
0.0
 11
7.70697
 21
3.8666
 31
0.0
  0
LINE
  8
0
 62
     0
 10
7.70697
 20
3.8666
 30
0.0
 11
7.7601
 21
3.85781
 31
0.0
  0
LINE
  8
0
 62
     0
 10
7.7601
 20
3.85781
 30
0.0
 11
7.79856
 21
3.83143
 31
0.0
  0
LINE
  8
0
 62
     0
 10
7.79856
 20
3.83143
 30
0.0
 11
7.81711
 21
3.79992
 31
0.0
  0
LINE
  8
0
 62
     0
 10
7.81711
 20
3.79992
 30
0.0
 11
7.82329
 21
3.76178
 31
0.0
  0
LINE
  8
0
 62
     0
 10
7.82329
 20
3.76178
 30
0.0
 11
7.81554
 21
3.71951
 31
0.0
  0
LINE
  8
0
 62
     0
 10
7.81554
 20
3.71951
 30
0.0
 11
7.79249
 21
3.6856
 31
0.0
  0
LINE
  8
0
 62
     0
 10
7.79249
 20
3.6856
 30
0.0
 11
7.75569
 21
3.66331
 31
0.0
  0
LINE
  8
0
 62
     0
 10
7.75569
 20
3.66331
 30
0.0
 11
7.70719
 21
3.65587
 31
0.0
  0
LINE
  8
0
 62
     0
 10
7.70719
 20
3.65587
 30
0.0
 11
7.66319
 21
3.66206
 31
0.0
  0
LINE
  8
0
 62
     0
 10
7.66319
 20
3.66206
 30
0.0
 11
7.62864
 21
3.68061
 31
0.0
  0
LINE
  8
0
 62
     0
 10
7.62864
 20
3.68061
 30
0.0
 11
7.60092
 21
3.71593
 31
0.0
  0
LINE
  8
0
 62
     0
 10
7.60092
 20
3.71593
 30
0.0
 11
7.59174
 21
3.76069
 31
0.0
  0
LINE
  8
0
 62
     0
 10
7.66922
 20
3.7609
 30
0.0
 11
7.68007
 21
3.72097
 31
0.0
  0
LINE
  8
0
 62
     0
 10
7.68007
 20
3.72097
 30
0.0
 11
7.70762
 21
3.70817
 31
0.0
  0
LINE
  8
0
 62
     0
 10
7.70762
 20
3.70817
 30
0.0
 11
7.73497
 21
3.72076
 31
0.0
  0
LINE
  8
0
 62
     0
 10
7.73497
 20
3.72076
 30
0.0
 11
7.74582
 21
3.76156
 31
0.0
  0
LINE
  8
0
 62
     0
 10
7.74582
 20
3.76156
 30
0.0
 11
7.73497
 21
3.80062
 31
0.0
  0
LINE
  8
0
 62
     0
 10
7.73497
 20
3.80062
 30
0.0
 11
7.70806
 21
3.81342
 31
0.0
  0
LINE
  8
0
 62
     0
 10
7.70806
 20
3.81342
 30
0.0
 11
7.68007
 21
3.8004
 31
0.0
  0
LINE
  8
0
 62
     0
 10
7.68007
 20
3.8004
 30
0.0
 11
7.66922
 21
3.7609
 31
0.0
  0
LINE
  8
0
 62
     0
 10
7.86094
 20
3.86203
 30
0.0
 11
7.93343
 21
3.86203
 31
0.0
  0
LINE
  8
0
 62
     0
 10
7.93343
 20
3.86203
 30
0.0
 11
7.93343
 21
3.82904
 31
0.0
  0
LINE
  8
0
 62
     0
 10
7.93343
 20
3.82904
 30
0.0
 11
7.95492
 21
3.85856
 31
0.0
  0
LINE
  8
0
 62
     0
 10
7.95492
 20
3.85856
 30
0.0
 11
7.98226
 21
3.8666
 31
0.0
  0
LINE
  8
0
 62
     0
 10
7.98226
 20
3.8666
 30
0.0
 11
8.01981
 21
3.85596
 31
0.0
  0
LINE
  8
0
 62
     0
 10
8.01981
 20
3.85596
 30
0.0
 11
7.99571
 21
3.80106
 31
0.0
  0
LINE
  8
0
 62
     0
 10
7.99571
 20
3.80106
 30
0.0
 11
7.97424
 21
3.80669
 31
0.0
  0
LINE
  8
0
 62
     0
 10
7.97424
 20
3.80669
 30
0.0
 11
7.95057
 21
3.79411
 31
0.0
  0
LINE
  8
0
 62
     0
 10
7.95057
 20
3.79411
 30
0.0
 11
7.94157
 21
3.76882
 31
0.0
  0
LINE
  8
0
 62
     0
 10
7.94157
 20
3.76882
 30
0.0
 11
7.93864
 21
3.72814
 31
0.0
  0
LINE
  8
0
 62
     0
 10
7.93864
 20
3.72814
 30
0.0
 11
7.93864
 21
3.66043
 31
0.0
  0
LINE
  8
0
 62
     0
 10
7.93864
 20
3.66043
 30
0.0
 11
7.86094
 21
3.66043
 31
0.0
  0
LINE
  8
0
 62
     0
 10
7.86094
 20
3.66043
 30
0.0
 11
7.86094
 21
3.86203
 31
0.0
  0
LINE
  8
0
 62
     0
 10
8.18354
 20
3.86203
 30
0.0
 11
8.25603
 21
3.86203
 31
0.0
  0
LINE
  8
0
 62
     0
 10
8.25603
 20
3.86203
 30
0.0
 11
8.25603
 21
3.67171
 31
0.0
  0
LINE
  8
0
 62
     0
 10
8.25603
 20
3.67171
 30
0.0
 11
8.25624
 21
3.66282
 31
0.0
  0
LINE
  8
0
 62
     0
 10
8.25624
 20
3.66282
 30
0.0
 11
8.24799
 21
3.62657
 31
0.0
  0
LINE
  8
0
 62
     0
 10
8.24799
 20
3.62657
 30
0.0
 11
8.22651
 21
3.59879
 31
0.0
  0
LINE
  8
0
 62
     0
 10
8.22651
 20
3.59879
 30
0.0
 11
8.19265
 21
3.58339
 31
0.0
  0
LINE
  8
0
 62
     0
 10
8.19265
 20
3.58339
 30
0.0
 11
8.14535
 21
3.57861
 31
0.0
  0
LINE
  8
0
 62
     0
 10
8.14535
 20
3.57861
 30
0.0
 11
8.09403
 21
3.58317
 31
0.0
  0
LINE
  8
0
 62
     0
 10
8.09403
 20
3.58317
 30
0.0
 11
8.06179
 21
3.59685
 31
0.0
  0
LINE
  8
0
 62
     0
 10
8.06179
 20
3.59685
 30
0.0
 11
8.04482
 21
3.61817
 31
0.0
  0
LINE
  8
0
 62
     0
 10
8.04482
 20
3.61817
 30
0.0
 11
8.03922
 21
3.64567
 31
0.0
  0
LINE
  8
0
 62
     0
 10
8.03922
 20
3.64567
 30
0.0
 11
8.03965
 21
3.65587
 31
0.0
  0
LINE
  8
0
 62
     0
 10
8.03965
 20
3.65587
 30
0.0
 11
8.11475
 21
3.6474
 31
0.0
  0
LINE
  8
0
 62
     0
 10
8.11475
 20
3.6474
 30
0.0
 11
8.12343
 21
3.63286
 31
0.0
  0
LINE
  8
0
 62
     0
 10
8.12343
 20
3.63286
 30
0.0
 11
8.14492
 21
3.62701
 31
0.0
  0
LINE
  8
0
 62
     0
 10
8.14492
 20
3.62701
 30
0.0
 11
8.16986
 21
3.6359
 31
0.0
  0
LINE
  8
0
 62
     0
 10
8.16986
 20
3.6359
 30
0.0
 11
8.17811
 21
3.66715
 31
0.0
  0
LINE
  8
0
 62
     0
 10
8.17811
 20
3.66715
 30
0.0
 11
8.17811
 21
3.69775
 31
0.0
  0
LINE
  8
0
 62
     0
 10
8.17811
 20
3.69775
 30
0.0
 11
8.15533
 21
3.678
 31
0.0
  0
LINE
  8
0
 62
     0
 10
8.15533
 20
3.678
 30
0.0
 11
8.11669
 21
3.66868
 31
0.0
  0
LINE
  8
0
 62
     0
 10
8.11669
 20
3.66868
 30
0.0
 11
8.08014
 21
3.67746
 31
0.0
  0
LINE
  8
0
 62
     0
 10
8.08014
 20
3.67746
 30
0.0
 11
8.05137
 21
3.70383
 31
0.0
  0
LINE
  8
0
 62
     0
 10
8.05137
 20
3.70383
 30
0.0
 11
8.03819
 21
3.73301
 31
0.0
  0
LINE
  8
0
 62
     0
 10
8.03819
 20
3.73301
 30
0.0
 11
8.03381
 21
3.77024
 31
0.0
  0
LINE
  8
0
 62
     0
 10
8.03381
 20
3.77024
 30
0.0
 11
8.0395
 21
3.81168
 31
0.0
  0
LINE
  8
0
 62
     0
 10
8.0395
 20
3.81168
 30
0.0
 11
8.05658
 21
3.84185
 31
0.0
  0
LINE
  8
0
 62
     0
 10
8.05658
 20
3.84185
 30
0.0
 11
8.08285
 21
3.8604
 31
0.0
  0
LINE
  8
0
 62
     0
 10
8.08285
 20
3.8604
 30
0.0
 11
8.11626
 21
3.8666
 31
0.0
  0
LINE
  8
0
 62
     0
 10
8.11626
 20
3.8666
 30
0.0
 11
8.15489
 21
3.85856
 31
0.0
  0
LINE
  8
0
 62
     0
 10
8.15489
 20
3.85856
 30
0.0
 11
8.18354
 21
3.83231
 31
0.0
  0
LINE
  8
0
 62
     0
 10
8.18354
 20
3.83231
 30
0.0
 11
8.18354
 21
3.86203
 31
0.0
  0
LINE
  8
0
 62
     0
 10
8.11083
 20
3.76438
 30
0.0
 11
8.12017
 21
3.73182
 31
0.0
  0
LINE
  8
0
 62
     0
 10
8.12017
 20
3.73182
 30
0.0
 11
8.14469
 21
3.7214
 31
0.0
  0
LINE
  8
0
 62
     0
 10
8.14469
 20
3.7214
 30
0.0
 11
8.16878
 21
3.73226
 31
0.0
  0
LINE
  8
0
 62
     0
 10
8.16878
 20
3.73226
 30
0.0
 11
8.17876
 21
3.76525
 31
0.0
  0
LINE
  8
0
 62
     0
 10
8.17876
 20
3.76525
 30
0.0
 11
8.16835
 21
3.79889
 31
0.0
  0
LINE
  8
0
 62
     0
 10
8.16835
 20
3.79889
 30
0.0
 11
8.14339
 21
3.8106
 31
0.0
  0
LINE
  8
0
 62
     0
 10
8.14339
 20
3.8106
 30
0.0
 11
8.11974
 21
3.79975
 31
0.0
  0
LINE
  8
0
 62
     0
 10
8.11974
 20
3.79975
 30
0.0
 11
8.11083
 21
3.76438
 31
0.0
  0
ENDSEC
  0
EOF
